<?xml version="1.0" encoding="UTF-8"?>
<!DOCTYPE svg PUBLIC "-//W3C//DTD SVG 1.1//EN" "http://www.w3.org/Graphics/SVG/1.1/DTD/svg11.dtd">
<svg xmlns="http://www.w3.org/2000/svg" xmlns:xlink="http://www.w3.org/1999/xlink" xmlns:xml="http://www.w3.org/XML/1998/namespace" width="2.6366102430555554in" height="2.2777777777777777in" viewBox="0 0 189.8359375 164" stroke-linecap="round" stroke-linejoin="round" xml:space="preserve" >
<defs><style>
text { white-space: pre; }
</style></defs>
<g>
<path d="M 1 82 L 1 163 L 109 163 L 109 82 L 1 82 z" fill="#eeeeee" />
<path d="M 1 1 L 1 82 L 109 82 L 109 1 L 1 1 z" stroke="#000000" stroke-width="2" fill="none"/>
<path d="M 1 82 L 1 163 L 109 163 L 109 82 L 1 82 z" stroke="#000000" stroke-width="2" fill="none"/>
</g>
<g>
<path d="M 23.5 104.5 L 23.5 118 L 55 118 L 55 104.5 L 23.5 104.5 z" fill="#ffffff" />
<path d="M 59.5 104.5 L 59.5 118 L 82 118 L 82 104.5 L 59.5 104.5 z" fill="#ffffff" />
<path d="M 23.5 122.5 L 23.5 136 L 50.5 136 L 50.5 122.5 L 23.5 122.5 z" fill="#ffffff" />
<path d="M 55 122.5 L 55 136 L 82 136 L 82 122.5 L 55 122.5 z" fill="#ffffff" />
<path d="M 5.5 140.5 L 5.5 154 L 32.5 154 L 32.5 140.5 L 5.5 140.5 z" fill="#ffffff" />
<path d="M 37 140.5 L 37 154 L 64 154 L 64 140.5 L 37 140.5 z" fill="#ffffff" />
<path d="M 68.5 140.5 L 68.5 154 L 82 154 L 82 140.5 L 68.5 140.5 z" fill="#ffffff" />
<path d="M 5.5 122.5 L 5.5 136 L 19 136 L 19 122.5 L 5.5 122.5 z" fill="#ffffff" />
<path d="M 5.5 104.5 L 5.5 118 L 19 118 L 19 104.5 L 5.5 104.5 z" fill="#ffffff" />
<path d="M 5.5 86.5 L 5.5 100 L 23.5 100 L 23.5 86.5 L 5.5 86.5 z" fill="#ffffff" />
<path d="M 28 86.5 L 28 100 L 46 100 L 46 86.5 L 28 86.5 z" fill="#ffffff" />
<path d="M 50.5 86.5 L 50.5 100 L 68.5 100 L 68.5 86.5 L 50.5 86.5 z" fill="#ffffff" />
<path d="M 5.5 104.5 L 5.5 118 L 19 118 L 19 104.5 L 5.5 104.5 z" stroke="#000000" stroke-width="1" fill="none"/>
<path d="M 5.5 86.5 L 5.5 100 L 23.5 100 L 23.5 86.5 L 5.5 86.5 z" stroke="#000000" stroke-width="1" fill="none"/>
<path d="M 28 86.5 L 28 100 L 46 100 L 46 86.5 L 28 86.5 z" stroke="#000000" stroke-width="1" fill="none"/>
<path d="M 50.5 86.5 L 50.5 100 L 68.5 100 L 68.5 86.5 L 50.5 86.5 z" stroke="#000000" stroke-width="1" fill="none"/>
<path d="M 23.5 122.5 L 23.5 136 L 50.5 136 L 50.5 122.5 L 23.5 122.5 z" stroke="#000000" stroke-width="1" fill="none"/>
<path d="M 5.5 122.5 L 5.5 136 L 19 136 L 19 122.5 L 5.5 122.5 z" stroke="#000000" stroke-width="1" fill="none"/>
<path d="M 68.5 140.5 L 68.5 154 L 82 154 L 82 140.5 L 68.5 140.5 z" stroke="#000000" stroke-width="1" fill="none"/>
<path d="M 5.5 140.5 L 5.5 154 L 32.5 154 L 32.5 140.5 L 5.5 140.5 z" stroke="#000000" stroke-width="1" fill="none"/>
<path d="M 37 140.5 L 37 154 L 64 154 L 64 140.5 L 37 140.5 z" stroke="#000000" stroke-width="1" fill="none"/>
<path d="M 23.5 104.5 L 23.5 118 L 55 118 L 55 104.5 L 23.5 104.5 z" stroke="#000000" stroke-width="1" fill="none"/>
<path d="M 59.5 104.5 L 59.5 118 L 82 118 L 82 104.5 L 59.5 104.5 z" stroke="#000000" stroke-width="1" fill="none"/>
<path d="M 55 122.5 L 55 136 L 82 136 L 82 122.5 L 55 122.5 z" stroke="#000000" stroke-width="1" fill="none"/>
<g fill ="#000000" transform="translate(9.57666015625 114.89013671875) "><g fill ="#000000" transform="translate(0 0) scale(0.0048828125 -0.0048828125)"><path fill-rule="evenodd" d="M 316 1259 L 136 1259 L 136 1466 L 316 1466 L 316 1259 Z M 316 0 L 136 0 L 136 1062 L 316 1062 L 316 0 Z "/></g><g fill ="#000000" transform="translate(2.2216796875 0) scale(0.0048828125 -0.0048828125)"><path fill-rule="evenodd" d="M 357 0 L 178 0 L 178 922 L 19 922 L 19 1062 L 178 1062 L 178 1175 Q 178 1282 197 1334 Q 223 1404 288 1447 Q 354 1491 472 1491 Q 548 1491 640 1473 L 613 1316 Q 557 1326 507 1326 Q 425 1326 391 1291 Q 357 1256 357 1160 L 357 1062 L 564 1062 L 564 922 L 357 922 L 357 0 Z "/></g></g><g fill ="#000000" transform="translate(28.884765625 132.7802734375) "><g fill ="#000000" transform="translate(0 0) scale(0.0048828125 -0.0048828125)"><path fill-rule="evenodd" d="M 763 1472 L 763 0 L 583 0 L 583 1147 Q 518 1085 412 1023 Q 307 961 223 930 L 223 1104 Q 374 1175 487 1276 Q 600 1377 647 1472 L 763 1472 Z "/></g><g fill ="#000000" transform="translate(5.5615234375 0) scale(0.0048828125 -0.0048828125)"><path fill-rule="evenodd" d="M 312 173 L 1031 173 L 1031 0 L 62 0 Q 60 65 83 125 Q 120 224 201 320 Q 283 416 437 542 Q 676 738 760 852 Q 844 967 844 1069 Q 844 1176 767 1249 Q 691 1323 568 1323 Q 438 1323 360 1245 Q 282 1167 281 1029 L 96 1048 Q 115 1255 239 1363 Q 363 1472 572 1472 Q 783 1472 906 1355 Q 1029 1238 1029 1065 Q 1029 977 993 892 Q 957 807 873 713 Q 790 619 596 455 Q 434 319 388 270 Q 342 222 312 173 Z "/></g><g fill ="#000000" transform="translate(11.123046875 0) scale(0.0048828125 -0.0048828125)"><path fill-rule="evenodd" d="M 86 387 L 266 411 Q 297 258 371 190 Q 446 123 553 123 Q 680 123 767 211 Q 855 299 855 429 Q 855 553 774 633 Q 693 714 568 714 Q 517 714 441 694 L 461 852 Q 479 850 490 850 Q 605 850 697 910 Q 789 970 789 1095 Q 789 1194 722 1259 Q 655 1324 549 1324 Q 444 1324 374 1258 Q 304 1192 284 1060 L 104 1092 Q 137 1273 254 1372 Q 371 1472 545 1472 Q 665 1472 766 1420 Q 867 1369 920 1280 Q 974 1191 974 1091 Q 974 996 923 918 Q 872 840 772 794 Q 902 764 974 669 Q 1046 575 1046 433 Q 1046 241 906 107 Q 766 -26 552 -26 Q 359 -26 231 89 Q 104 204 86 387 Z "/></g></g><g fill ="#000000" transform="translate(11.29541015625 131.5) "><g fill ="#000000" transform="translate(0 0) scale(0.0048828125 -0.0048828125)"><path fill-rule="evenodd" d="M 391 0 L 186 0 L 186 205 L 391 205 L 391 0 Z "/></g></g><g fill ="#000000" transform="translate(73.765625 149.837890625) "><g fill ="#000000" transform="translate(0 0) scale(0.0048828125 -0.0048828125)"><path fill-rule="evenodd" d="M 608 -431 L 479 -431 Q 330 -243 227 9 Q 124 261 124 531 Q 124 769 201 987 Q 291 1240 479 1491 L 608 1491 Q 487 1283 448 1194 Q 387 1056 352 906 Q 309 719 309 530 Q 309 49 608 -431 Z "/></g></g><g fill ="#000000" transform="translate(10.591796875 150.68994140625) "><g fill ="#000000" transform="translate(0 0) scale(0.0048828125 -0.0048828125)"><path fill-rule="evenodd" d="M 528 161 L 554 2 Q 478 -14 418 -14 Q 320 -14 266 17 Q 212 48 190 98 Q 168 149 168 311 L 168 922 L 36 922 L 36 1062 L 168 1062 L 168 1325 L 347 1433 L 347 1062 L 528 1062 L 528 922 L 347 922 L 347 301 Q 347 224 356 202 Q 366 180 387 167 Q 409 154 449 154 Q 479 154 528 161 Z "/></g><g fill ="#000000" transform="translate(2.7783203125 0) scale(0.0048828125 -0.0048828125)"><path fill-rule="evenodd" d="M 313 0 L 133 0 L 133 1062 L 295 1062 L 295 901 Q 357 1014 409 1050 Q 462 1086 525 1086 Q 616 1086 710 1028 L 648 861 Q 582 900 516 900 Q 457 900 410 864 Q 363 829 343 766 Q 313 670 313 556 L 313 0 Z "/></g><g fill ="#000000" transform="translate(6.1083984375 0) scale(0.0048828125 -0.0048828125)"><path fill-rule="evenodd" d="M 992 0 L 831 0 L 831 156 Q 707 -24 494 -24 Q 400 -24 318 12 Q 237 48 197 102 Q 158 157 142 236 Q 131 289 131 404 L 131 1062 L 311 1062 L 311 473 Q 311 332 322 283 Q 339 212 394 171 Q 449 131 530 131 Q 611 131 682 172 Q 753 214 782 285 Q 812 357 812 493 L 812 1062 L 992 1062 L 992 0 Z "/></g><g fill ="#000000" transform="translate(11.669921875 0) scale(0.0048828125 -0.0048828125)"><path fill-rule="evenodd" d="M 862 342 L 1048 319 Q 1004 156 885 66 Q 766 -24 581 -24 Q 348 -24 211 119 Q 75 263 75 522 Q 75 790 213 938 Q 351 1086 571 1086 Q 784 1086 919 941 Q 1054 796 1054 533 Q 1054 517 1053 485 L 261 485 Q 271 310 360 217 Q 449 124 582 124 Q 681 124 751 176 Q 821 228 862 342 Z M 271 633 L 864 633 Q 852 767 796 834 Q 710 938 573 938 Q 449 938 364 855 Q 280 772 271 633 Z "/></g></g><g fill ="#000000" transform="translate(40.14599609375 150.83154296875) "><g fill ="#000000" transform="translate(0 0) scale(0.0048828125 -0.0048828125)"><path fill-rule="evenodd" d="M 357 0 L 178 0 L 178 922 L 19 922 L 19 1062 L 178 1062 L 178 1175 Q 178 1282 197 1334 Q 223 1404 288 1447 Q 354 1491 472 1491 Q 548 1491 640 1473 L 613 1316 Q 557 1326 507 1326 Q 425 1326 391 1291 Q 357 1256 357 1160 L 357 1062 L 564 1062 L 564 922 L 357 922 L 357 0 Z "/></g><g fill ="#000000" transform="translate(2.7783203125 0) scale(0.0048828125 -0.0048828125)"><path fill-rule="evenodd" d="M 828 131 Q 728 46 635 11 Q 543 -24 437 -24 Q 262 -24 168 61 Q 74 147 74 280 Q 74 358 109 422 Q 145 487 202 526 Q 260 565 332 585 Q 385 599 492 612 Q 710 638 813 674 Q 814 711 814 721 Q 814 831 763 876 Q 694 937 558 937 Q 431 937 370 892 Q 310 848 281 735 L 105 759 Q 129 872 184 941 Q 239 1011 343 1048 Q 447 1086 584 1086 Q 720 1086 805 1054 Q 890 1022 930 973 Q 970 925 986 851 Q 995 805 995 685 L 995 445 Q 995 194 1006 127 Q 1018 61 1052 0 L 864 0 Q 836 56 828 131 Z M 813 467 L 813 533 Q 715 493 519 465 Q 408 449 362 429 Q 316 409 291 370 Q 266 332 266 285 Q 266 213 320 165 Q 375 117 480 117 Q 584 117 665 162 Q 746 208 784 287 Q 813 348 813 467 Z "/></g><g fill ="#000000" transform="translate(8.33984375 0) scale(0.0048828125 -0.0048828125)"><path fill-rule="evenodd" d="M 311 0 L 131 0 L 131 1466 L 311 1466 L 311 0 Z "/></g><g fill ="#000000" transform="translate(10.5615234375 0) scale(0.0048828125 -0.0048828125)"><path fill-rule="evenodd" d="M 63 317 L 241 345 Q 256 238 324 181 Q 393 124 516 124 Q 640 124 700 174 Q 760 225 760 293 Q 760 354 707 389 Q 670 413 523 450 Q 325 500 248 536 Q 172 573 132 637 Q 93 702 93 780 Q 93 851 125 911 Q 158 972 214 1012 Q 256 1043 328 1064 Q 401 1086 484 1086 Q 609 1086 703 1050 Q 798 1014 843 952 Q 888 891 905 788 L 729 764 Q 717 846 659 892 Q 602 938 497 938 Q 373 938 320 897 Q 267 856 267 801 Q 267 766 289 738 Q 311 709 358 690 Q 385 680 517 644 Q 708 593 783 560 Q 859 528 902 466 Q 945 404 945 312 Q 945 222 892 142 Q 840 63 741 19 Q 642 -24 517 -24 Q 310 -24 201 62 Q 93 148 63 317 Z "/></g><g fill ="#000000" transform="translate(15.5615234375 0) scale(0.0048828125 -0.0048828125)"><path fill-rule="evenodd" d="M 862 342 L 1048 319 Q 1004 156 885 66 Q 766 -24 581 -24 Q 348 -24 211 119 Q 75 263 75 522 Q 75 790 213 938 Q 351 1086 571 1086 Q 784 1086 919 941 Q 1054 796 1054 533 Q 1054 517 1053 485 L 261 485 Q 271 310 360 217 Q 449 124 582 124 Q 681 124 751 176 Q 821 228 862 342 Z M 271 633 L 864 633 Q 852 767 796 834 Q 710 938 573 938 Q 449 938 364 855 Q 280 772 271 633 Z "/></g></g><g fill ="#000000" transform="translate(28.0634765625 114.7705078125) "><g fill ="#000000" transform="translate(0 0) scale(0.0048828125 -0.0048828125)"><path fill-rule="evenodd" d="M 519 0 L 331 0 L 6 1062 L 192 1062 L 361 449 L 424 221 Q 428 238 479 440 L 648 1062 L 833 1062 L 992 446 L 1045 243 L 1106 448 L 1288 1062 L 1463 1062 L 1131 0 L 944 0 L 775 636 L 734 817 L 519 0 Z "/></g><g fill ="#000000" transform="translate(7.2216796875 0) scale(0.0048828125 -0.0048828125)"><path fill-rule="evenodd" d="M 315 0 L 135 0 L 135 1466 L 315 1466 L 315 940 Q 441 1086 633 1086 Q 751 1086 838 1039 Q 925 993 962 911 Q 1000 829 1000 673 L 1000 0 L 820 0 L 820 673 Q 820 808 761 869 Q 703 931 596 931 Q 516 931 445 889 Q 375 848 345 777 Q 315 706 315 581 L 315 0 Z "/></g><g fill ="#000000" transform="translate(12.783203125 0) scale(0.0048828125 -0.0048828125)"><path fill-rule="evenodd" d="M 316 1259 L 136 1259 L 136 1466 L 316 1466 L 316 1259 Z M 316 0 L 136 0 L 136 1062 L 316 1062 L 316 0 Z "/></g><g fill ="#000000" transform="translate(15.0048828125 0) scale(0.0048828125 -0.0048828125)"><path fill-rule="evenodd" d="M 311 0 L 131 0 L 131 1466 L 311 1466 L 311 0 Z "/></g><g fill ="#000000" transform="translate(17.2265625 0) scale(0.0048828125 -0.0048828125)"><path fill-rule="evenodd" d="M 862 342 L 1048 319 Q 1004 156 885 66 Q 766 -24 581 -24 Q 348 -24 211 119 Q 75 263 75 522 Q 75 790 213 938 Q 351 1086 571 1086 Q 784 1086 919 941 Q 1054 796 1054 533 Q 1054 517 1053 485 L 261 485 Q 271 310 360 217 Q 449 124 582 124 Q 681 124 751 176 Q 821 228 862 342 Z M 271 633 L 864 633 Q 852 767 796 834 Q 710 938 573 938 Q 449 938 364 855 Q 280 772 271 633 Z "/></g></g><g fill ="#000000" transform="translate(64.8466796875 114.83154296875) "><g fill ="#000000" transform="translate(0 0) scale(0.0048828125 -0.0048828125)"><path fill-rule="evenodd" d="M 357 0 L 178 0 L 178 922 L 19 922 L 19 1062 L 178 1062 L 178 1175 Q 178 1282 197 1334 Q 223 1404 288 1447 Q 354 1491 472 1491 Q 548 1491 640 1473 L 613 1316 Q 557 1326 507 1326 Q 425 1326 391 1291 Q 357 1256 357 1160 L 357 1062 L 564 1062 L 564 922 L 357 922 L 357 0 Z "/></g><g fill ="#000000" transform="translate(2.7783203125 0) scale(0.0048828125 -0.0048828125)"><path fill-rule="evenodd" d="M 68 531 Q 68 826 232 968 Q 369 1086 566 1086 Q 785 1086 924 942 Q 1063 799 1063 546 Q 1063 341 1001 223 Q 940 106 822 41 Q 705 -24 566 -24 Q 343 -24 205 119 Q 68 262 68 531 Z M 253 531 Q 253 327 342 225 Q 431 124 566 124 Q 700 124 789 226 Q 878 328 878 537 Q 878 734 788 835 Q 699 937 566 937 Q 431 937 342 836 Q 253 735 253 531 Z "/></g><g fill ="#000000" transform="translate(8.33984375 0) scale(0.0048828125 -0.0048828125)"><path fill-rule="evenodd" d="M 313 0 L 133 0 L 133 1062 L 295 1062 L 295 901 Q 357 1014 409 1050 Q 462 1086 525 1086 Q 616 1086 710 1028 L 648 861 Q 582 900 516 900 Q 457 900 410 864 Q 363 829 343 766 Q 313 670 313 556 L 313 0 Z "/></g></g><g fill ="#000000" transform="translate(61.01708984375 132.8291015625) "><g fill ="#000000" transform="translate(0 0) scale(0.0048828125 -0.0048828125)"><path fill-rule="evenodd" d="M 254 947 L 144 947 L 94 1226 L 94 1466 L 299 1466 L 299 1226 L 254 947 Z M 583 947 L 475 947 L 426 1226 L 426 1466 L 631 1466 L 631 1226 L 583 947 Z "/></g><g fill ="#000000" transform="translate(3.5498046875 0) scale(0.0048828125 -0.0048828125)"><path fill-rule="evenodd" d="M 391 0 L 186 0 L 186 205 L 391 205 L 391 0 Z "/></g><g fill ="#000000" transform="translate(6.328125 0) scale(0.0048828125 -0.0048828125)"><path fill-rule="evenodd" d="M 391 0 L 186 0 L 186 205 L 391 205 L 391 0 Z "/></g><g fill ="#000000" transform="translate(9.1064453125 0) scale(0.0048828125 -0.0048828125)"><path fill-rule="evenodd" d="M 391 0 L 186 0 L 186 205 L 391 205 L 391 0 Z "/></g><g fill ="#000000" transform="translate(11.884765625 0) scale(0.0048828125 -0.0048828125)"><path fill-rule="evenodd" d="M 254 947 L 144 947 L 94 1226 L 94 1466 L 299 1466 L 299 1226 L 254 947 Z M 583 947 L 475 947 L 426 1226 L 426 1466 L 631 1466 L 631 1226 L 583 947 Z "/></g></g><path d="M 10.75 93.25 L 15.25 93.25 " stroke="#000000" stroke-width="2" fill="none"/>
<g transform="translate(15.25 93.25) scale(2) rotate(-360) scale( 1 -1) "><path d="M -0.5 -1.5 L -0.5 1.5 L 2 0 L -0.5 -1.5 z" fill="#000000" />
</g><path d="M 42.625 90.25 L 42.625 94.75 L 33.625 94.75 " stroke="#000000" stroke-width="1.5" fill="none"/>
<g transform="translate(33.625 94.75) scale(1.5) rotate(-180) scale( 1 -1) "><path d="M -0.5 -1.5 L -0.5 1.5 L 2 0 L -0.5 -1.5 z" fill="#000000" />
</g><g>
<path d="M 52.75 93.25 L 57.25 88.75 L 66.25 88.75 L 66.25 97.75 L 57.25 97.75 L 52.75 93.25 z" stroke="#000000" stroke-width="1" fill="none"/>
<g>
<path d="M 59.5 91 L 64 95.5 " stroke="#000000" stroke-width="1" fill="none"/>
<path d="M 59.5 95.5 L 64 91 " stroke="#000000" stroke-width="1" fill="none"/>
</g>
</g>
</g>
<g>
<path d="M 113.5 1 L 118 5.5 L 118 73 L 113.5 77.5 " stroke="#000000" stroke-width="2" fill="none"/>
<path d="M 113.5 86.5 L 118 91 L 118 158.5 L 113.5 163 " stroke="#000000" stroke-width="2" fill="none"/>
<g fill ="#000000" transform="translate(122.5 44.9765625) "><g fill ="#000000" transform="translate(0 0) scale(0.0078125 -0.0078125)"><path fill-rule="evenodd" d="M 1204 514 L 1398 465 Q 1337 226 1178 100 Q 1020 -25 791 -25 Q 554 -25 405 71 Q 257 168 179 351 Q 102 534 102 744 Q 102 973 189 1143 Q 277 1314 438 1402 Q 600 1491 794 1491 Q 1014 1491 1164 1379 Q 1314 1267 1373 1064 L 1182 1019 Q 1131 1179 1034 1252 Q 937 1325 790 1325 Q 621 1325 507 1244 Q 394 1163 348 1026 Q 302 890 302 745 Q 302 558 356 418 Q 411 279 526 210 Q 641 141 775 141 Q 938 141 1051 235 Q 1164 329 1204 514 Z "/></g><g fill ="#000000" transform="translate(11.5546875 0) scale(0.0078125 -0.0078125)"><path fill-rule="evenodd" d="M 68 531 Q 68 826 232 968 Q 369 1086 566 1086 Q 785 1086 924 942 Q 1063 799 1063 546 Q 1063 341 1001 223 Q 940 106 822 41 Q 705 -24 566 -24 Q 343 -24 205 119 Q 68 262 68 531 Z M 253 531 Q 253 327 342 225 Q 431 124 566 124 Q 700 124 789 226 Q 878 328 878 537 Q 878 734 788 835 Q 699 937 566 937 Q 431 937 342 836 Q 253 735 253 531 Z "/></g><g fill ="#000000" transform="translate(20.453125 0) scale(0.0078125 -0.0078125)"><path fill-rule="evenodd" d="M 991 0 L 824 0 L 824 134 Q 723 -24 527 -24 Q 400 -24 293 46 Q 187 116 128 241 Q 70 367 70 530 Q 70 689 123 818 Q 176 948 282 1017 Q 388 1086 519 1086 Q 615 1086 690 1045 Q 765 1005 812 940 L 812 1466 L 991 1466 L 991 0 Z M 255 530 Q 255 326 341 225 Q 427 124 544 124 Q 662 124 744 220 Q 827 317 827 515 Q 827 733 743 835 Q 659 937 536 937 Q 416 937 335 839 Q 255 741 255 530 Z "/></g><g fill ="#000000" transform="translate(29.3515625 0) scale(0.0078125 -0.0078125)"><path fill-rule="evenodd" d="M 862 342 L 1048 319 Q 1004 156 885 66 Q 766 -24 581 -24 Q 348 -24 211 119 Q 75 263 75 522 Q 75 790 213 938 Q 351 1086 571 1086 Q 784 1086 919 941 Q 1054 796 1054 533 Q 1054 517 1053 485 L 261 485 Q 271 310 360 217 Q 449 124 582 124 Q 681 124 751 176 Q 821 228 862 342 Z M 271 633 L 864 633 Q 852 767 796 834 Q 710 938 573 938 Q 449 938 364 855 Q 280 772 271 633 Z "/></g></g><g fill ="#000000" transform="translate(122.5 120.7828125) "><g fill ="#000000" transform="translate(0 0) scale(0.0078125 -0.0078125)"><path fill-rule="evenodd" d="M 344 0 L 150 0 L 150 1466 L 344 1466 L 344 739 L 1072 1466 L 1335 1466 L 720 872 L 1362 0 L 1106 0 L 584 742 L 344 508 L 344 0 Z "/></g><g fill ="#000000" transform="translate(10.671875 0) scale(0.0078125 -0.0078125)"><path fill-rule="evenodd" d="M 862 342 L 1048 319 Q 1004 156 885 66 Q 766 -24 581 -24 Q 348 -24 211 119 Q 75 263 75 522 Q 75 790 213 938 Q 351 1086 571 1086 Q 784 1086 919 941 Q 1054 796 1054 533 Q 1054 517 1053 485 L 261 485 Q 271 310 360 217 Q 449 124 582 124 Q 681 124 751 176 Q 821 228 862 342 Z M 271 633 L 864 633 Q 852 767 796 834 Q 710 938 573 938 Q 449 938 364 855 Q 280 772 271 633 Z "/></g><g fill ="#000000" transform="translate(19.5703125 0) scale(0.0078125 -0.0078125)"><path fill-rule="evenodd" d="M 127 -409 L 107 -240 Q 166 -256 210 -256 Q 270 -256 306 -236 Q 342 -216 365 -180 Q 382 -153 420 -46 Q 425 -31 436 -2 L 33 1062 L 227 1062 L 448 447 Q 491 330 525 201 Q 556 325 599 443 L 826 1062 L 1006 1062 L 602 -18 Q 537 -193 501 -259 Q 453 -348 391 -389 Q 329 -431 243 -431 Q 191 -431 127 -409 Z "/></g><g fill ="#000000" transform="translate(27.5703125 0) scale(0.0078125 -0.0078125)"><path fill-rule="evenodd" d="M 301 133 L 301 0 L 134 0 L 134 1466 L 314 1466 L 314 943 Q 428 1086 605 1086 Q 703 1086 790 1046 Q 878 1007 934 935 Q 991 864 1023 763 Q 1055 662 1055 547 Q 1055 274 920 125 Q 785 -24 596 -24 Q 408 -24 301 133 Z M 299 539 Q 299 348 351 263 Q 436 124 581 124 Q 699 124 785 226 Q 871 329 871 532 Q 871 740 788 839 Q 706 938 589 938 Q 471 938 385 835 Q 299 733 299 539 Z "/></g><g fill ="#000000" transform="translate(36.46875 0) scale(0.0078125 -0.0078125)"><path fill-rule="evenodd" d="M 68 531 Q 68 826 232 968 Q 369 1086 566 1086 Q 785 1086 924 942 Q 1063 799 1063 546 Q 1063 341 1001 223 Q 940 106 822 41 Q 705 -24 566 -24 Q 343 -24 205 119 Q 68 262 68 531 Z M 253 531 Q 253 327 342 225 Q 431 124 566 124 Q 700 124 789 226 Q 878 328 878 537 Q 878 734 788 835 Q 699 937 566 937 Q 431 937 342 836 Q 253 735 253 531 Z "/></g><g fill ="#000000" transform="translate(45.3671875 0) scale(0.0078125 -0.0078125)"><path fill-rule="evenodd" d="M 828 131 Q 728 46 635 11 Q 543 -24 437 -24 Q 262 -24 168 61 Q 74 147 74 280 Q 74 358 109 422 Q 145 487 202 526 Q 260 565 332 585 Q 385 599 492 612 Q 710 638 813 674 Q 814 711 814 721 Q 814 831 763 876 Q 694 937 558 937 Q 431 937 370 892 Q 310 848 281 735 L 105 759 Q 129 872 184 941 Q 239 1011 343 1048 Q 447 1086 584 1086 Q 720 1086 805 1054 Q 890 1022 930 973 Q 970 925 986 851 Q 995 805 995 685 L 995 445 Q 995 194 1006 127 Q 1018 61 1052 0 L 864 0 Q 836 56 828 131 Z M 813 467 L 813 533 Q 715 493 519 465 Q 408 449 362 429 Q 316 409 291 370 Q 266 332 266 285 Q 266 213 320 165 Q 375 117 480 117 Q 584 117 665 162 Q 746 208 784 287 Q 813 348 813 467 Z "/></g><g fill ="#000000" transform="translate(54.265625 0) scale(0.0078125 -0.0078125)"><path fill-rule="evenodd" d="M 313 0 L 133 0 L 133 1062 L 295 1062 L 295 901 Q 357 1014 409 1050 Q 462 1086 525 1086 Q 616 1086 710 1028 L 648 861 Q 582 900 516 900 Q 457 900 410 864 Q 363 829 343 766 Q 313 670 313 556 L 313 0 Z "/></g><g fill ="#000000" transform="translate(59.59375 0) scale(0.0078125 -0.0078125)"><path fill-rule="evenodd" d="M 991 0 L 824 0 L 824 134 Q 723 -24 527 -24 Q 400 -24 293 46 Q 187 116 128 241 Q 70 367 70 530 Q 70 689 123 818 Q 176 948 282 1017 Q 388 1086 519 1086 Q 615 1086 690 1045 Q 765 1005 812 940 L 812 1466 L 991 1466 L 991 0 Z M 255 530 Q 255 326 341 225 Q 427 124 544 124 Q 662 124 744 220 Q 827 317 827 515 Q 827 733 743 835 Q 659 937 536 937 Q 416 937 335 839 Q 255 741 255 530 Z "/></g></g><g fill ="#000000" transform="translate(122.5 120.7828125) "><g fill ="#000000" transform="translate(0 -19.200000000000003) scale(0.0078125 -0.0078125)"><path fill-rule="evenodd" d="M 301 133 L 301 0 L 134 0 L 134 1466 L 314 1466 L 314 943 Q 428 1086 605 1086 Q 703 1086 790 1046 Q 878 1007 934 935 Q 991 864 1023 763 Q 1055 662 1055 547 Q 1055 274 920 125 Q 785 -24 596 -24 Q 408 -24 301 133 Z M 299 539 Q 299 348 351 263 Q 436 124 581 124 Q 699 124 785 226 Q 871 329 871 532 Q 871 740 788 839 Q 706 938 589 938 Q 471 938 385 835 Q 299 733 299 539 Z "/></g><g fill ="#000000" transform="translate(8.8984375 -19.200000000000003) scale(0.0078125 -0.0078125)"><path fill-rule="evenodd" d="M 992 0 L 831 0 L 831 156 Q 707 -24 494 -24 Q 400 -24 318 12 Q 237 48 197 102 Q 158 157 142 236 Q 131 289 131 404 L 131 1062 L 311 1062 L 311 473 Q 311 332 322 283 Q 339 212 394 171 Q 449 131 530 131 Q 611 131 682 172 Q 753 214 782 285 Q 812 357 812 493 L 812 1062 L 992 1062 L 992 0 Z "/></g><g fill ="#000000" transform="translate(17.796875 -19.200000000000003) scale(0.0078125 -0.0078125)"><path fill-rule="evenodd" d="M 528 161 L 554 2 Q 478 -14 418 -14 Q 320 -14 266 17 Q 212 48 190 98 Q 168 149 168 311 L 168 922 L 36 922 L 36 1062 L 168 1062 L 168 1325 L 347 1433 L 347 1062 L 528 1062 L 528 922 L 347 922 L 347 301 Q 347 224 356 202 Q 366 180 387 167 Q 409 154 449 154 Q 479 154 528 161 Z "/></g><g fill ="#000000" transform="translate(22.2421875 -19.200000000000003) scale(0.0078125 -0.0078125)"><path fill-rule="evenodd" d="M 528 161 L 554 2 Q 478 -14 418 -14 Q 320 -14 266 17 Q 212 48 190 98 Q 168 149 168 311 L 168 922 L 36 922 L 36 1062 L 168 1062 L 168 1325 L 347 1433 L 347 1062 L 528 1062 L 528 922 L 347 922 L 347 301 Q 347 224 356 202 Q 366 180 387 167 Q 409 154 449 154 Q 479 154 528 161 Z "/></g><g fill ="#000000" transform="translate(26.6875 -19.200000000000003) scale(0.0078125 -0.0078125)"><path fill-rule="evenodd" d="M 68 531 Q 68 826 232 968 Q 369 1086 566 1086 Q 785 1086 924 942 Q 1063 799 1063 546 Q 1063 341 1001 223 Q 940 106 822 41 Q 705 -24 566 -24 Q 343 -24 205 119 Q 68 262 68 531 Z M 253 531 Q 253 327 342 225 Q 431 124 566 124 Q 700 124 789 226 Q 878 328 878 537 Q 878 734 788 835 Q 699 937 566 937 Q 431 937 342 836 Q 253 735 253 531 Z "/></g><g fill ="#000000" transform="translate(35.5859375 -19.200000000000003) scale(0.0078125 -0.0078125)"><path fill-rule="evenodd" d="M 315 0 L 135 0 L 135 1062 L 297 1062 L 297 911 Q 414 1086 635 1086 Q 731 1086 811 1051 Q 892 1017 932 961 Q 972 905 988 828 Q 998 778 998 653 L 998 0 L 818 0 L 818 646 Q 818 756 797 810 Q 776 865 722 897 Q 669 930 597 930 Q 482 930 398 857 Q 315 784 315 580 L 315 0 Z "/></g><g fill ="#000000" transform="translate(44.484375 -19.200000000000003) scale(0.0078125 -0.0078125)"><path fill-rule="evenodd" d="M 63 317 L 241 345 Q 256 238 324 181 Q 393 124 516 124 Q 640 124 700 174 Q 760 225 760 293 Q 760 354 707 389 Q 670 413 523 450 Q 325 500 248 536 Q 172 573 132 637 Q 93 702 93 780 Q 93 851 125 911 Q 158 972 214 1012 Q 256 1043 328 1064 Q 401 1086 484 1086 Q 609 1086 703 1050 Q 798 1014 843 952 Q 888 891 905 788 L 729 764 Q 717 846 659 892 Q 602 938 497 938 Q 373 938 320 897 Q 267 856 267 801 Q 267 766 289 738 Q 311 709 358 690 Q 385 680 517 644 Q 708 593 783 560 Q 859 528 902 466 Q 945 404 945 312 Q 945 222 892 142 Q 840 63 741 19 Q 642 -24 517 -24 Q 310 -24 201 62 Q 93 148 63 317 Z "/></g></g></g>
<g>
<g fill ="#000000" transform="translate(10 17.087890625) "><g fill ="#000000" transform="translate(0 0) scale(0.0048828125 -0.0048828125)"><path fill-rule="evenodd" d="M 316 1259 L 136 1259 L 136 1466 L 316 1466 L 316 1259 Z M 316 0 L 136 0 L 136 1062 L 316 1062 L 316 0 Z "/></g><g fill ="#000000" transform="translate(2.2216796875 0) scale(0.0048828125 -0.0048828125)"><path fill-rule="evenodd" d="M 357 0 L 178 0 L 178 922 L 19 922 L 19 1062 L 178 1062 L 178 1175 Q 178 1282 197 1334 Q 223 1404 288 1447 Q 354 1491 472 1491 Q 548 1491 640 1473 L 613 1316 Q 557 1326 507 1326 Q 425 1326 391 1291 Q 357 1256 357 1160 L 357 1062 L 564 1062 L 564 922 L 357 922 L 357 0 Z "/></g><g fill ="#000000" transform="translate(5 0) scale(0.0048828125 -0.0048828125)"><path fill-rule="evenodd" d=""/></g><g fill ="#000000" transform="translate(7.7783203125 0) scale(0.0048828125 -0.0048828125)"><path fill-rule="evenodd" d=""/></g><g fill ="#000000" transform="translate(10.556640625 0) scale(0.0048828125 -0.0048828125)"><path fill-rule="evenodd" d=""/></g><g fill ="#000000" transform="translate(13.3349609375 0) scale(0.0048828125 -0.0048828125)"><path fill-rule="evenodd" d=""/></g><g fill ="#000000" transform="translate(16.11328125 0) scale(0.0048828125 -0.0048828125)"><path fill-rule="evenodd" d=""/></g><g fill ="#000000" transform="translate(18.8916015625 0) scale(0.0048828125 -0.0048828125)"><path fill-rule="evenodd" d=""/></g><g fill ="#000000" transform="translate(21.669921875 0) scale(0.0048828125 -0.0048828125)"><path fill-rule="evenodd" d="M 57 449 L 57 612 Q 134 614 182 653 Q 231 693 247 762 Q 263 831 264 998 Q 265 1165 270 1218 Q 279 1302 303 1353 Q 328 1404 364 1434 Q 400 1465 456 1481 Q 494 1491 580 1491 L 636 1491 L 636 1334 L 605 1334 Q 501 1334 467 1296 Q 433 1259 433 1129 Q 433 867 422 798 Q 404 691 360 633 Q 317 575 224 530 Q 334 484 383 389 Q 433 295 433 80 Q 433 -115 437 -152 Q 445 -220 477 -247 Q 510 -274 605 -274 L 636 -274 L 636 -431 L 580 -431 Q 482 -431 438 -415 Q 374 -392 332 -340 Q 290 -289 277 -210 Q 265 -131 264 49 Q 263 229 247 298 Q 231 367 182 407 Q 134 447 57 449 Z "/></g></g><path d="M 5.5 5.5 L 41.5 5.5 L 41.5 23.5 L 19 23.5 L 19 64 L 5.5 64 L 5.5 5.5 z" stroke="#000000" stroke-width="0.5" fill="none" stroke-dasharray="1.003125 1.503125"/>
<path d="M 19 10 L 19 19 L 28 19 L 28 10 L 19 10 z" stroke="#000000" stroke-width="0.5" fill="none" stroke-dasharray="1.003125 1.503125"/>
<path d="M 19 37 L 37 37 L 37 23.5 " stroke="#000000" stroke-width="0.5" fill="none" stroke-dasharray="1.003125 1.503125"/>
<path d="M 37 37 L 55 37 L 55 23.5 " stroke="#000000" stroke-width="0.5" fill="none" stroke-dasharray="1.003125 1.503125"/>
<path d="M 55 37 L 68.5 37 L 68.5 23.5 L 55 23.5 L 41.5 23.5 " stroke="#000000" stroke-width="0.5" fill="none" stroke-dasharray="1.003125 1.503125"/>
<g fill ="#000000" transform="translate(10 59.5) "><g fill ="#000000" transform="translate(0 0) scale(0.0048828125 -0.0048828125)"><path fill-rule="evenodd" d="M 57 449 L 57 612 Q 134 614 182 653 Q 231 693 247 762 Q 263 831 264 998 Q 265 1165 270 1218 Q 279 1302 303 1353 Q 328 1404 364 1434 Q 400 1465 456 1481 Q 494 1491 580 1491 L 636 1491 L 636 1334 L 605 1334 Q 501 1334 467 1296 Q 433 1259 433 1129 Q 433 867 422 798 Q 404 691 360 633 Q 317 575 224 530 Q 334 484 383 389 Q 433 295 433 80 Q 433 -115 437 -152 Q 445 -220 477 -247 Q 510 -274 605 -274 L 636 -274 L 636 -431 L 580 -431 Q 482 -431 438 -415 Q 374 -392 332 -340 Q 290 -289 277 -210 Q 265 -131 264 49 Q 263 229 247 298 Q 231 367 182 407 Q 134 447 57 449 Z "/></g></g><g fill ="#000000" transform="translate(23.5 32.5) "><g fill ="#000000" transform="translate(0 0) scale(0.0048828125 -0.0048828125)"><path fill-rule="evenodd" d="M 391 0 L 186 0 L 186 205 L 391 205 L 391 0 Z "/></g><g fill ="#000000" transform="translate(2.7783203125 0) scale(0.0048828125 -0.0048828125)"><path fill-rule="evenodd" d="M 828 131 Q 728 46 635 11 Q 543 -24 437 -24 Q 262 -24 168 61 Q 74 147 74 280 Q 74 358 109 422 Q 145 487 202 526 Q 260 565 332 585 Q 385 599 492 612 Q 710 638 813 674 Q 814 711 814 721 Q 814 831 763 876 Q 694 937 558 937 Q 431 937 370 892 Q 310 848 281 735 L 105 759 Q 129 872 184 941 Q 239 1011 343 1048 Q 447 1086 584 1086 Q 720 1086 805 1054 Q 890 1022 930 973 Q 970 925 986 851 Q 995 805 995 685 L 995 445 Q 995 194 1006 127 Q 1018 61 1052 0 L 864 0 Q 836 56 828 131 Z M 813 467 L 813 533 Q 715 493 519 465 Q 408 449 362 429 Q 316 409 291 370 Q 266 332 266 285 Q 266 213 320 165 Q 375 117 480 117 Q 584 117 665 162 Q 746 208 784 287 Q 813 348 813 467 Z "/></g></g><g fill ="#000000" transform="translate(41.57951156315245 32.93731359733843) "><g fill ="#000000" transform="translate(0 0) scale(0.0048828125 -0.0048828125)"><path fill-rule="evenodd" d="M 390 857 L 185 857 L 185 1062 L 390 1062 L 390 857 Z M 390 0 L 185 0 L 185 205 L 390 205 L 390 0 Z "/></g><g fill ="#000000" transform="translate(2.7783203125 0) scale(0.0048828125 -0.0048828125)"><path fill-rule="evenodd" d="M 1082 1030 L 1082 862 L 114 862 L 114 1030 L 1082 1030 Z M 1082 585 L 1082 417 L 114 417 L 114 585 L 1082 585 Z "/></g></g><g fill ="#000000" transform="translate(59.06268640266157 33.97096391832018) "><g fill ="#000000" transform="translate(0 0) scale(0.0048828125 -0.0048828125)"><path fill-rule="evenodd" d="M 85 723 Q 85 983 138 1141 Q 192 1300 297 1386 Q 403 1472 563 1472 Q 681 1472 770 1424 Q 859 1377 917 1287 Q 975 1198 1008 1069 Q 1041 941 1041 723 Q 1041 465 988 306 Q 935 148 829 61 Q 724 -25 563 -25 Q 351 -25 230 127 Q 85 310 85 723 Z M 270 723 Q 270 362 354 242 Q 439 123 563 123 Q 687 123 771 243 Q 856 363 856 723 Q 856 1085 771 1204 Q 687 1323 561 1323 Q 437 1323 363 1218 Q 270 1084 270 723 Z "/></g></g><path d="M 19.75440602622424 38.83877272204174 L 19.69293225742505 49.55014146614815 " stroke="#000000" stroke-width="4" fill="none"/>
</g>
</svg>