<?xml version="1.0" encoding="UTF-8"?>
<!DOCTYPE svg PUBLIC "-//W3C//DTD SVG 1.1//EN" "http://www.w3.org/Graphics/SVG/1.1/DTD/svg11.dtd">
<svg xmlns="http://www.w3.org/2000/svg" xmlns:xlink="http://www.w3.org/1999/xlink" xmlns:xml="http://www.w3.org/XML/1998/namespace" width="2.6383463541666665in" height="2.2777777777777777in" viewBox="0 0 189.9609375 164" stroke-linecap="round" stroke-linejoin="round" xml:space="preserve" >
<defs><style>
text { white-space: pre; }
</style></defs>
<g>
<path d="M 1 82 L 1 163 L 109 163 L 109 82 L 1 82 z" fill="#eeeeee" />
<path d="M 1 1 L 1 82 L 109 82 L 109 1 L 1 1 z" stroke="#000000" stroke-width="2" fill="none"/>
<path d="M 1 82 L 1 163 L 109 163 L 109 82 L 1 82 z" stroke="#000000" stroke-width="2" fill="none"/>
</g>
<g>
<path d="M 23.5 104.5 L 23.5 118 L 55 118 L 55 104.5 L 23.5 104.5 z" fill="#ffffff" />
<path d="M 59.5 104.5 L 59.5 118 L 82 118 L 82 104.5 L 59.5 104.5 z" fill="#ffffff" />
<path d="M 23.5 122.5 L 23.5 136 L 50.5 136 L 50.5 122.5 L 23.5 122.5 z" fill="#ffffff" />
<path d="M 55 122.5 L 55 136 L 82 136 L 82 122.5 L 55 122.5 z" fill="#ffffff" />
<path d="M 5.5 140.5 L 5.5 154 L 32.5 154 L 32.5 140.5 L 5.5 140.5 z" fill="#ffffff" />
<path d="M 37 140.5 L 37 154 L 64 154 L 64 140.5 L 37 140.5 z" fill="#ffffff" />
<path d="M 68.5 140.5 L 68.5 154 L 82 154 L 82 140.5 L 68.5 140.5 z" fill="#ffffff" />
<path d="M 5.5 122.5 L 5.5 136 L 19 136 L 19 122.5 L 5.5 122.5 z" fill="#ffffff" />
<path d="M 5.5 104.5 L 5.5 118 L 19 118 L 19 104.5 L 5.5 104.5 z" fill="#ffffff" />
<path d="M 5.5 86.5 L 5.5 100 L 23.5 100 L 23.5 86.5 L 5.5 86.5 z" fill="#ffffff" />
<path d="M 28 86.5 L 28 100 L 46 100 L 46 86.5 L 28 86.5 z" fill="#ffffff" />
<path d="M 50.5 86.5 L 50.5 100 L 68.5 100 L 68.5 86.5 L 50.5 86.5 z" fill="#ffffff" />
<path d="M 5.5 104.5 L 5.5 118 L 19 118 L 19 104.5 L 5.5 104.5 z" stroke="#000000" stroke-width="1" fill="none"/>
<path d="M 5.5 86.5 L 5.5 100 L 23.5 100 L 23.5 86.5 L 5.5 86.5 z" stroke="#000000" stroke-width="1" fill="none"/>
<path d="M 28 86.5 L 28 100 L 46 100 L 46 86.5 L 28 86.5 z" stroke="#000000" stroke-width="1" fill="none"/>
<path d="M 50.5 86.5 L 50.5 100 L 68.5 100 L 68.5 86.5 L 50.5 86.5 z" stroke="#000000" stroke-width="1" fill="none"/>
<path d="M 23.5 122.5 L 23.5 136 L 50.5 136 L 50.5 122.5 L 23.5 122.5 z" stroke="#000000" stroke-width="1" fill="none"/>
<path d="M 5.5 122.5 L 5.5 136 L 19 136 L 19 122.5 L 5.5 122.5 z" stroke="#000000" stroke-width="1" fill="none"/>
<path d="M 68.5 140.5 L 68.5 154 L 82 154 L 82 140.5 L 68.5 140.5 z" stroke="#000000" stroke-width="1" fill="none"/>
<path d="M 5.5 140.5 L 5.5 154 L 32.5 154 L 32.5 140.5 L 5.5 140.5 z" stroke="#000000" stroke-width="1" fill="none"/>
<path d="M 37 140.5 L 37 154 L 64 154 L 64 140.5 L 37 140.5 z" stroke="#000000" stroke-width="1" fill="none"/>
<path d="M 23.5 104.5 L 23.5 118 L 55 118 L 55 104.5 L 23.5 104.5 z" stroke="#000000" stroke-width="1" fill="none"/>
<path d="M 59.5 104.5 L 59.5 118 L 82 118 L 82 104.5 L 59.5 104.5 z" stroke="#000000" stroke-width="1" fill="none"/>
<path d="M 55 122.5 L 55 136 L 82 136 L 82 122.5 L 55 122.5 z" stroke="#000000" stroke-width="1" fill="none"/>
<g fill ="#000000" transform="translate(9.57666015625 114.89013671875) "><g fill ="#000000" transform="translate(0 0) scale(0.0048828125 -0.0048828125)"><path fill-rule="evenodd" d="M 317 1312 L 137 1312 L 137 1484 L 317 1484 L 317 1312 Z M 317 0 L 137 0 L 137 1082 L 317 1082 L 317 0 Z "/></g><g fill ="#000000" transform="translate(2.2216796875 0) scale(0.0048828125 -0.0048828125)"><path fill-rule="evenodd" d="M 572 951 L 361 951 L 361 0 L 181 0 L 181 951 L 29 951 L 29 1082 L 181 1082 L 181 1204 Q 181 1352 246 1417 Q 311 1482 445 1482 Q 520 1482 572 1470 L 572 1333 Q 527 1341 492 1341 Q 423 1341 392 1306 Q 361 1271 361 1179 L 361 1082 L 572 1082 L 572 951 Z "/></g></g><g fill ="#000000" transform="translate(28.884765625 132.7802734375) "><g fill ="#000000" transform="translate(0 0) scale(0.0048828125 -0.0048828125)"><path fill-rule="evenodd" d="M 1039 0 L 156 0 L 156 153 L 515 153 L 515 1237 L 197 1010 L 197 1180 L 530 1409 L 696 1409 L 696 153 L 1039 153 L 1039 0 Z "/></g><g fill ="#000000" transform="translate(5.5615234375 0) scale(0.0048828125 -0.0048828125)"><path fill-rule="evenodd" d="M 1036 0 L 103 0 L 103 127 Q 154 244 227 333 Q 301 423 382 495 Q 463 568 542 630 Q 622 692 686 754 Q 750 816 789 884 Q 829 952 829 1038 Q 829 1154 761 1218 Q 693 1282 572 1282 Q 457 1282 382 1219 Q 308 1157 295 1044 L 111 1061 Q 131 1230 254 1330 Q 378 1430 572 1430 Q 785 1430 899 1329 Q 1014 1229 1014 1044 Q 1014 962 976 881 Q 939 800 865 719 Q 791 638 582 468 Q 467 374 399 298 Q 331 223 301 153 L 1036 153 L 1036 0 Z "/></g><g fill ="#000000" transform="translate(11.123046875 0) scale(0.0048828125 -0.0048828125)"><path fill-rule="evenodd" d="M 1049 389 Q 1049 194 925 87 Q 801 -20 571 -20 Q 357 -20 229 76 Q 102 173 78 362 L 264 379 Q 300 129 571 129 Q 707 129 784 196 Q 862 263 862 395 Q 862 510 773 574 Q 685 639 518 639 L 416 639 L 416 795 L 514 795 Q 662 795 743 859 Q 825 924 825 1038 Q 825 1151 758 1216 Q 692 1282 561 1282 Q 442 1282 368 1221 Q 295 1160 283 1049 L 102 1063 Q 122 1236 245 1333 Q 369 1430 563 1430 Q 775 1430 892 1331 Q 1010 1233 1010 1057 Q 1010 922 934 837 Q 859 753 715 723 L 715 719 Q 873 702 961 613 Q 1049 524 1049 389 Z "/></g></g><g fill ="#000000" transform="translate(11.29541015625 131.5) "><g fill ="#000000" transform="translate(0 0) scale(0.0048828125 -0.0048828125)"><path fill-rule="evenodd" d="M 382 0 L 187 0 L 187 219 L 382 219 L 382 0 Z "/></g></g><g fill ="#000000" transform="translate(73.765625 149.837890625) "><g fill ="#000000" transform="translate(0 0) scale(0.0048828125 -0.0048828125)"><path fill-rule="evenodd" d="M 127 528 L 127 532 Q 127 821 217 1051 Q 308 1281 496 1484 L 670 1484 Q 483 1276 395 1042 Q 308 808 308 530 Q 308 253 394 20 Q 481 -213 670 -424 L 496 -424 Q 307 -220 217 10 Q 127 241 127 528 Z "/></g></g><g fill ="#000000" transform="translate(10.591796875 150.68994140625) "><g fill ="#000000" transform="translate(0 0) scale(0.0048828125 -0.0048828125)"><path fill-rule="evenodd" d="M 554 141 L 554 8 Q 465 -16 372 -16 Q 156 -16 156 229 L 156 951 L 31 951 L 31 1082 L 163 1082 L 216 1324 L 336 1324 L 336 1082 L 536 1082 L 536 951 L 336 951 L 336 268 Q 336 190 361 158 Q 387 127 450 127 Q 486 127 554 141 Z "/></g><g fill ="#000000" transform="translate(2.7783203125 0) scale(0.0048828125 -0.0048828125)"><path fill-rule="evenodd" d="M 322 0 L 142 0 L 142 830 Q 142 944 136 1082 L 306 1082 Q 314 898 314 861 L 318 861 Q 361 1000 417 1051 Q 473 1102 575 1102 Q 611 1102 648 1092 L 648 927 Q 612 937 552 937 Q 440 937 381 840 Q 322 744 322 564 L 322 0 Z "/></g><g fill ="#000000" transform="translate(6.1083984375 0) scale(0.0048828125 -0.0048828125)"><path fill-rule="evenodd" d="M 133 1082 L 314 1082 L 314 396 Q 314 289 335 230 Q 356 171 402 145 Q 448 119 537 119 Q 667 119 742 208 Q 817 297 817 455 L 817 1082 L 997 1082 L 997 231 Q 997 42 1003 0 L 833 0 Q 832 5 831 27 Q 830 49 828 77 Q 827 106 825 185 L 822 185 Q 760 73 678 26 Q 597 -20 476 -20 Q 298 -20 215 68 Q 133 157 133 361 L 133 1082 Z "/></g><g fill ="#000000" transform="translate(11.669921875 0) scale(0.0048828125 -0.0048828125)"><path fill-rule="evenodd" d="M 1048 503 L 276 503 Q 276 317 353 216 Q 430 115 578 115 Q 695 115 765 162 Q 836 209 861 281 L 1019 236 Q 922 -20 578 -20 Q 338 -20 212 123 Q 87 266 87 548 Q 87 816 212 959 Q 338 1102 571 1102 Q 1048 1102 1048 527 L 1048 503 Z M 278 641 L 862 641 Q 847 812 775 890 Q 703 969 568 969 Q 437 969 360 881 Q 284 794 278 641 Z "/></g></g><g fill ="#000000" transform="translate(40.14599609375 150.83154296875) "><g fill ="#000000" transform="translate(0 0) scale(0.0048828125 -0.0048828125)"><path fill-rule="evenodd" d="M 572 951 L 361 951 L 361 0 L 181 0 L 181 951 L 29 951 L 29 1082 L 181 1082 L 181 1204 Q 181 1352 246 1417 Q 311 1482 445 1482 Q 520 1482 572 1470 L 572 1333 Q 527 1341 492 1341 Q 423 1341 392 1306 Q 361 1271 361 1179 L 361 1082 L 572 1082 L 572 951 Z "/></g><g fill ="#000000" transform="translate(2.7783203125 0) scale(0.0048828125 -0.0048828125)"><path fill-rule="evenodd" d="M 414 -20 Q 251 -20 169 66 Q 87 152 87 302 Q 87 470 197 560 Q 308 650 554 656 L 797 660 L 797 719 Q 797 851 741 908 Q 685 965 565 965 Q 444 965 389 924 Q 334 883 323 793 L 135 810 Q 181 1102 569 1102 Q 773 1102 876 1008 Q 979 915 979 738 L 979 272 Q 979 192 1000 151 Q 1021 111 1080 111 Q 1106 111 1139 118 L 1139 6 Q 1071 -10 1000 -10 Q 900 -10 854 42 Q 809 95 803 207 L 797 207 Q 728 83 636 31 Q 545 -20 414 -20 Z M 455 115 Q 554 115 631 160 Q 708 205 752 283 Q 797 362 797 445 L 797 534 L 600 530 Q 473 528 407 504 Q 342 480 307 430 Q 272 380 272 299 Q 272 211 319 163 Q 367 115 455 115 Z "/></g><g fill ="#000000" transform="translate(8.33984375 0) scale(0.0048828125 -0.0048828125)"><path fill-rule="evenodd" d="M 318 0 L 138 0 L 138 1484 L 318 1484 L 318 0 Z "/></g><g fill ="#000000" transform="translate(10.5615234375 0) scale(0.0048828125 -0.0048828125)"><path fill-rule="evenodd" d="M 950 299 Q 950 146 834 63 Q 719 -20 511 -20 Q 309 -20 199 46 Q 90 113 57 254 L 216 285 Q 239 198 311 157 Q 383 117 511 117 Q 648 117 711 159 Q 775 201 775 285 Q 775 349 731 389 Q 687 429 589 455 L 460 489 Q 305 529 239 567 Q 174 606 137 661 Q 100 716 100 796 Q 100 944 205 1021 Q 311 1099 513 1099 Q 692 1099 797 1036 Q 903 973 931 834 L 769 814 Q 754 886 688 924 Q 623 963 513 963 Q 391 963 333 926 Q 275 889 275 814 Q 275 768 299 738 Q 323 708 370 687 Q 417 666 568 629 Q 711 593 774 562 Q 837 532 873 495 Q 910 458 930 409 Q 950 361 950 299 Z "/></g><g fill ="#000000" transform="translate(15.5615234375 0) scale(0.0048828125 -0.0048828125)"><path fill-rule="evenodd" d="M 1048 503 L 276 503 Q 276 317 353 216 Q 430 115 578 115 Q 695 115 765 162 Q 836 209 861 281 L 1019 236 Q 922 -20 578 -20 Q 338 -20 212 123 Q 87 266 87 548 Q 87 816 212 959 Q 338 1102 571 1102 Q 1048 1102 1048 527 L 1048 503 Z M 278 641 L 862 641 Q 847 812 775 890 Q 703 969 568 969 Q 437 969 360 881 Q 284 794 278 641 Z "/></g></g><g fill ="#000000" transform="translate(28.0634765625 114.7705078125) "><g fill ="#000000" transform="translate(0 0) scale(0.0048828125 -0.0048828125)"><path fill-rule="evenodd" d="M 1484 1082 L 1174 0 L 965 0 L 776 765 L 740 934 Q 731 889 712 804 Q 693 720 508 0 L 300 0 L -3 1082 L 175 1082 L 358 347 Q 365 323 401 149 L 418 223 L 644 1082 L 837 1082 L 1026 339 L 1072 149 L 1103 288 L 1308 1082 L 1484 1082 Z "/></g><g fill ="#000000" transform="translate(7.2216796875 0) scale(0.0048828125 -0.0048828125)"><path fill-rule="evenodd" d="M 314 897 L 317 897 Q 375 1003 456 1052 Q 538 1102 663 1102 Q 839 1102 922 1014 Q 1006 927 1006 721 L 1006 0 L 825 0 L 825 686 Q 825 800 804 855 Q 783 911 735 937 Q 687 963 602 963 Q 475 963 398 875 Q 322 787 322 638 L 322 0 L 142 0 L 142 1484 L 322 1484 L 322 1098 Q 322 1037 318 972 Q 315 907 314 897 Z "/></g><g fill ="#000000" transform="translate(12.783203125 0) scale(0.0048828125 -0.0048828125)"><path fill-rule="evenodd" d="M 317 1312 L 137 1312 L 137 1484 L 317 1484 L 317 1312 Z M 317 0 L 137 0 L 137 1082 L 317 1082 L 317 0 Z "/></g><g fill ="#000000" transform="translate(15.0048828125 0) scale(0.0048828125 -0.0048828125)"><path fill-rule="evenodd" d="M 318 0 L 138 0 L 138 1484 L 318 1484 L 318 0 Z "/></g><g fill ="#000000" transform="translate(17.2265625 0) scale(0.0048828125 -0.0048828125)"><path fill-rule="evenodd" d="M 1048 503 L 276 503 Q 276 317 353 216 Q 430 115 578 115 Q 695 115 765 162 Q 836 209 861 281 L 1019 236 Q 922 -20 578 -20 Q 338 -20 212 123 Q 87 266 87 548 Q 87 816 212 959 Q 338 1102 571 1102 Q 1048 1102 1048 527 L 1048 503 Z M 278 641 L 862 641 Q 847 812 775 890 Q 703 969 568 969 Q 437 969 360 881 Q 284 794 278 641 Z "/></g></g><g fill ="#000000" transform="translate(64.8466796875 114.83154296875) "><g fill ="#000000" transform="translate(0 0) scale(0.0048828125 -0.0048828125)"><path fill-rule="evenodd" d="M 572 951 L 361 951 L 361 0 L 181 0 L 181 951 L 29 951 L 29 1082 L 181 1082 L 181 1204 Q 181 1352 246 1417 Q 311 1482 445 1482 Q 520 1482 572 1470 L 572 1333 Q 527 1341 492 1341 Q 423 1341 392 1306 Q 361 1271 361 1179 L 361 1082 L 572 1082 L 572 951 Z "/></g><g fill ="#000000" transform="translate(2.7783203125 0) scale(0.0048828125 -0.0048828125)"><path fill-rule="evenodd" d="M 1053 542 Q 1053 258 928 119 Q 803 -20 565 -20 Q 328 -20 207 124 Q 86 269 86 542 Q 86 1102 571 1102 Q 819 1102 936 965 Q 1053 829 1053 542 Z M 864 542 Q 864 766 797 867 Q 731 969 574 969 Q 416 969 345 865 Q 275 762 275 542 Q 275 328 344 220 Q 414 113 563 113 Q 725 113 794 217 Q 864 321 864 542 Z "/></g><g fill ="#000000" transform="translate(8.33984375 0) scale(0.0048828125 -0.0048828125)"><path fill-rule="evenodd" d="M 322 0 L 142 0 L 142 830 Q 142 944 136 1082 L 306 1082 Q 314 898 314 861 L 318 861 Q 361 1000 417 1051 Q 473 1102 575 1102 Q 611 1102 648 1092 L 648 927 Q 612 937 552 937 Q 440 937 381 840 Q 322 744 322 564 L 322 0 Z "/></g></g><g fill ="#000000" transform="translate(61.01708984375 132.8291015625) "><g fill ="#000000" transform="translate(0 0) scale(0.0048828125 -0.0048828125)"><path fill-rule="evenodd" d="M 640 1409 L 618 966 L 476 966 L 456 1409 L 640 1409 Z M 271 1409 L 249 966 L 108 966 L 87 1409 L 271 1409 Z "/></g><g fill ="#000000" transform="translate(3.5498046875 0) scale(0.0048828125 -0.0048828125)"><path fill-rule="evenodd" d="M 382 0 L 187 0 L 187 219 L 382 219 L 382 0 Z "/></g><g fill ="#000000" transform="translate(6.328125 0) scale(0.0048828125 -0.0048828125)"><path fill-rule="evenodd" d="M 382 0 L 187 0 L 187 219 L 382 219 L 382 0 Z "/></g><g fill ="#000000" transform="translate(9.1064453125 0) scale(0.0048828125 -0.0048828125)"><path fill-rule="evenodd" d="M 382 0 L 187 0 L 187 219 L 382 219 L 382 0 Z "/></g><g fill ="#000000" transform="translate(11.884765625 0) scale(0.0048828125 -0.0048828125)"><path fill-rule="evenodd" d="M 640 1409 L 618 966 L 476 966 L 456 1409 L 640 1409 Z M 271 1409 L 249 966 L 108 966 L 87 1409 L 271 1409 Z "/></g></g><path d="M 10.75 93.25 L 15.25 93.25 " stroke="#000000" stroke-width="2" fill="none"/>
<g transform="translate(15.25 93.25) scale(2) rotate(-360) scale( 1 -1) "><path d="M -0.5 -1.5 L -0.5 1.5 L 2 0 L -0.5 -1.5 z" fill="#000000" />
</g><path d="M 42.625 90.25 L 42.625 94.75 L 33.625 94.75 " stroke="#000000" stroke-width="1.5" fill="none"/>
<g transform="translate(33.625 94.75) scale(1.5) rotate(-180) scale( 1 -1) "><path d="M -0.5 -1.5 L -0.5 1.5 L 2 0 L -0.5 -1.5 z" fill="#000000" />
</g><g>
<path d="M 52.75 93.25 L 57.25 88.75 L 66.25 88.75 L 66.25 97.75 L 57.25 97.75 L 52.75 93.25 z" stroke="#000000" stroke-width="1" fill="none"/>
<g>
<path d="M 59.5 91 L 64 95.5 " stroke="#000000" stroke-width="1" fill="none"/>
<path d="M 59.5 95.5 L 64 91 " stroke="#000000" stroke-width="1" fill="none"/>
</g>
</g>
</g>
<g>
<path d="M 113.5 1 L 118 5.5 L 118 73 L 113.5 77.5 " stroke="#000000" stroke-width="2" fill="none"/>
<path d="M 113.5 86.5 L 118 91 L 118 158.5 L 113.5 163 " stroke="#000000" stroke-width="2" fill="none"/>
<g fill ="#000000" transform="translate(122.5 44.9765625) "><g fill ="#000000" transform="translate(0 0) scale(0.0078125 -0.0078125)"><path fill-rule="evenodd" d="M 792 1274 Q 558 1274 428 1123 Q 298 973 298 711 Q 298 452 433 294 Q 569 137 800 137 Q 1096 137 1245 430 L 1401 352 Q 1314 170 1156 75 Q 999 -20 791 -20 Q 578 -20 422 68 Q 267 157 185 321 Q 104 486 104 711 Q 104 1048 286 1239 Q 468 1430 790 1430 Q 1015 1430 1166 1342 Q 1317 1254 1388 1081 L 1207 1021 Q 1158 1144 1049 1209 Q 941 1274 792 1274 Z "/></g><g fill ="#000000" transform="translate(11.5546875 0) scale(0.0078125 -0.0078125)"><path fill-rule="evenodd" d="M 1053 542 Q 1053 258 928 119 Q 803 -20 565 -20 Q 328 -20 207 124 Q 86 269 86 542 Q 86 1102 571 1102 Q 819 1102 936 965 Q 1053 829 1053 542 Z M 864 542 Q 864 766 797 867 Q 731 969 574 969 Q 416 969 345 865 Q 275 762 275 542 Q 275 328 344 220 Q 414 113 563 113 Q 725 113 794 217 Q 864 321 864 542 Z "/></g><g fill ="#000000" transform="translate(20.453125 0) scale(0.0078125 -0.0078125)"><path fill-rule="evenodd" d="M 825 174 L 821 174 Q 771 70 688 25 Q 606 -20 484 -20 Q 279 -20 182 118 Q 86 256 86 536 Q 86 1102 484 1102 Q 607 1102 689 1057 Q 771 1012 821 914 L 823 914 L 821 1035 L 821 1484 L 1001 1484 L 1001 223 Q 1001 54 1007 0 L 835 0 Q 832 16 828 74 Q 825 132 825 174 Z M 275 542 Q 275 315 335 217 Q 395 119 530 119 Q 683 119 752 225 Q 821 331 821 554 Q 821 769 752 869 Q 683 969 532 969 Q 396 969 335 868 Q 275 768 275 542 Z "/></g><g fill ="#000000" transform="translate(29.3515625 0) scale(0.0078125 -0.0078125)"><path fill-rule="evenodd" d="M 1048 503 L 276 503 Q 276 317 353 216 Q 430 115 578 115 Q 695 115 765 162 Q 836 209 861 281 L 1019 236 Q 922 -20 578 -20 Q 338 -20 212 123 Q 87 266 87 548 Q 87 816 212 959 Q 338 1102 571 1102 Q 1048 1102 1048 527 L 1048 503 Z M 278 641 L 862 641 Q 847 812 775 890 Q 703 969 568 969 Q 437 969 360 881 Q 284 794 278 641 Z "/></g></g><g fill ="#000000" transform="translate(122.5 120.7828125) "><g fill ="#000000" transform="translate(0 0) scale(0.0078125 -0.0078125)"><path fill-rule="evenodd" d="M 1343 0 L 1106 0 L 543 680 L 359 540 L 359 0 L 168 0 L 168 1409 L 359 1409 L 359 703 L 1038 1409 L 1263 1409 L 663 797 L 1343 0 Z "/></g><g fill ="#000000" transform="translate(10.671875 0) scale(0.0078125 -0.0078125)"><path fill-rule="evenodd" d="M 1048 503 L 276 503 Q 276 317 353 216 Q 430 115 578 115 Q 695 115 765 162 Q 836 209 861 281 L 1019 236 Q 922 -20 578 -20 Q 338 -20 212 123 Q 87 266 87 548 Q 87 816 212 959 Q 338 1102 571 1102 Q 1048 1102 1048 527 L 1048 503 Z M 278 641 L 862 641 Q 847 812 775 890 Q 703 969 568 969 Q 437 969 360 881 Q 284 794 278 641 Z "/></g><g fill ="#000000" transform="translate(19.5703125 0) scale(0.0078125 -0.0078125)"><path fill-rule="evenodd" d="M 191 -425 Q 117 -425 67 -414 L 67 -279 Q 105 -285 151 -285 Q 319 -285 417 -38 L 434 5 L 5 1082 L 197 1082 L 425 484 Q 430 470 437 450 Q 444 431 482 320 Q 520 209 523 196 L 593 393 L 830 1082 L 1020 1082 L 604 0 Q 537 -173 479 -257 Q 421 -342 350 -383 Q 280 -425 191 -425 Z "/></g><g fill ="#000000" transform="translate(27.5703125 0) scale(0.0078125 -0.0078125)"><path fill-rule="evenodd" d="M 1053 546 Q 1053 -20 655 -20 Q 532 -20 450 24 Q 369 69 318 168 L 316 168 Q 316 137 312 73 Q 308 10 306 0 L 132 0 Q 138 54 138 223 L 138 1484 L 318 1484 L 318 1061 Q 318 996 314 908 L 318 908 Q 368 1012 450 1057 Q 533 1102 655 1102 Q 860 1102 956 964 Q 1053 826 1053 546 Z M 864 540 Q 864 767 804 865 Q 744 963 609 963 Q 457 963 387 859 Q 318 755 318 529 Q 318 316 386 214 Q 454 113 607 113 Q 743 113 803 213 Q 864 314 864 540 Z "/></g><g fill ="#000000" transform="translate(36.46875 0) scale(0.0078125 -0.0078125)"><path fill-rule="evenodd" d="M 1053 542 Q 1053 258 928 119 Q 803 -20 565 -20 Q 328 -20 207 124 Q 86 269 86 542 Q 86 1102 571 1102 Q 819 1102 936 965 Q 1053 829 1053 542 Z M 864 542 Q 864 766 797 867 Q 731 969 574 969 Q 416 969 345 865 Q 275 762 275 542 Q 275 328 344 220 Q 414 113 563 113 Q 725 113 794 217 Q 864 321 864 542 Z "/></g><g fill ="#000000" transform="translate(45.3671875 0) scale(0.0078125 -0.0078125)"><path fill-rule="evenodd" d="M 414 -20 Q 251 -20 169 66 Q 87 152 87 302 Q 87 470 197 560 Q 308 650 554 656 L 797 660 L 797 719 Q 797 851 741 908 Q 685 965 565 965 Q 444 965 389 924 Q 334 883 323 793 L 135 810 Q 181 1102 569 1102 Q 773 1102 876 1008 Q 979 915 979 738 L 979 272 Q 979 192 1000 151 Q 1021 111 1080 111 Q 1106 111 1139 118 L 1139 6 Q 1071 -10 1000 -10 Q 900 -10 854 42 Q 809 95 803 207 L 797 207 Q 728 83 636 31 Q 545 -20 414 -20 Z M 455 115 Q 554 115 631 160 Q 708 205 752 283 Q 797 362 797 445 L 797 534 L 600 530 Q 473 528 407 504 Q 342 480 307 430 Q 272 380 272 299 Q 272 211 319 163 Q 367 115 455 115 Z "/></g><g fill ="#000000" transform="translate(54.265625 0) scale(0.0078125 -0.0078125)"><path fill-rule="evenodd" d="M 322 0 L 142 0 L 142 830 Q 142 944 136 1082 L 306 1082 Q 314 898 314 861 L 318 861 Q 361 1000 417 1051 Q 473 1102 575 1102 Q 611 1102 648 1092 L 648 927 Q 612 937 552 937 Q 440 937 381 840 Q 322 744 322 564 L 322 0 Z "/></g><g fill ="#000000" transform="translate(59.59375 0) scale(0.0078125 -0.0078125)"><path fill-rule="evenodd" d="M 825 174 L 821 174 Q 771 70 688 25 Q 606 -20 484 -20 Q 279 -20 182 118 Q 86 256 86 536 Q 86 1102 484 1102 Q 607 1102 689 1057 Q 771 1012 821 914 L 823 914 L 821 1035 L 821 1484 L 1001 1484 L 1001 223 Q 1001 54 1007 0 L 835 0 Q 832 16 828 74 Q 825 132 825 174 Z M 275 542 Q 275 315 335 217 Q 395 119 530 119 Q 683 119 752 225 Q 821 331 821 554 Q 821 769 752 869 Q 683 969 532 969 Q 396 969 335 868 Q 275 768 275 542 Z "/></g></g><g fill ="#000000" transform="translate(122.5 120.7828125) "><g fill ="#000000" transform="translate(0 19.200000000000003) scale(0.0078125 -0.0078125)"><path fill-rule="evenodd" d="M 1053 546 Q 1053 -20 655 -20 Q 532 -20 450 24 Q 369 69 318 168 L 316 168 Q 316 137 312 73 Q 308 10 306 0 L 132 0 Q 138 54 138 223 L 138 1484 L 318 1484 L 318 1061 Q 318 996 314 908 L 318 908 Q 368 1012 450 1057 Q 533 1102 655 1102 Q 860 1102 956 964 Q 1053 826 1053 546 Z M 864 540 Q 864 767 804 865 Q 744 963 609 963 Q 457 963 387 859 Q 318 755 318 529 Q 318 316 386 214 Q 454 113 607 113 Q 743 113 803 213 Q 864 314 864 540 Z "/></g><g fill ="#000000" transform="translate(8.8984375 19.200000000000003) scale(0.0078125 -0.0078125)"><path fill-rule="evenodd" d="M 133 1082 L 314 1082 L 314 396 Q 314 289 335 230 Q 356 171 402 145 Q 448 119 537 119 Q 667 119 742 208 Q 817 297 817 455 L 817 1082 L 997 1082 L 997 231 Q 997 42 1003 0 L 833 0 Q 832 5 831 27 Q 830 49 828 77 Q 827 106 825 185 L 822 185 Q 760 73 678 26 Q 597 -20 476 -20 Q 298 -20 215 68 Q 133 157 133 361 L 133 1082 Z "/></g><g fill ="#000000" transform="translate(17.796875 19.200000000000003) scale(0.0078125 -0.0078125)"><path fill-rule="evenodd" d="M 554 141 L 554 8 Q 465 -16 372 -16 Q 156 -16 156 229 L 156 951 L 31 951 L 31 1082 L 163 1082 L 216 1324 L 336 1324 L 336 1082 L 536 1082 L 536 951 L 336 951 L 336 268 Q 336 190 361 158 Q 387 127 450 127 Q 486 127 554 141 Z "/></g><g fill ="#000000" transform="translate(22.2421875 19.200000000000003) scale(0.0078125 -0.0078125)"><path fill-rule="evenodd" d="M 554 141 L 554 8 Q 465 -16 372 -16 Q 156 -16 156 229 L 156 951 L 31 951 L 31 1082 L 163 1082 L 216 1324 L 336 1324 L 336 1082 L 536 1082 L 536 951 L 336 951 L 336 268 Q 336 190 361 158 Q 387 127 450 127 Q 486 127 554 141 Z "/></g><g fill ="#000000" transform="translate(26.6875 19.200000000000003) scale(0.0078125 -0.0078125)"><path fill-rule="evenodd" d="M 1053 542 Q 1053 258 928 119 Q 803 -20 565 -20 Q 328 -20 207 124 Q 86 269 86 542 Q 86 1102 571 1102 Q 819 1102 936 965 Q 1053 829 1053 542 Z M 864 542 Q 864 766 797 867 Q 731 969 574 969 Q 416 969 345 865 Q 275 762 275 542 Q 275 328 344 220 Q 414 113 563 113 Q 725 113 794 217 Q 864 321 864 542 Z "/></g><g fill ="#000000" transform="translate(35.5859375 19.200000000000003) scale(0.0078125 -0.0078125)"><path fill-rule="evenodd" d="M 1006 0 L 825 0 L 825 686 Q 825 793 804 852 Q 783 911 737 937 Q 691 963 602 963 Q 472 963 397 874 Q 322 785 322 627 L 322 0 L 142 0 L 142 851 Q 142 1040 136 1082 L 306 1082 Q 307 1077 308 1055 Q 309 1033 310 1004 Q 312 976 314 897 L 317 897 Q 379 1009 460 1055 Q 542 1102 663 1102 Q 841 1102 923 1013 Q 1006 925 1006 721 L 1006 0 Z "/></g><g fill ="#000000" transform="translate(44.484375 19.200000000000003) scale(0.0078125 -0.0078125)"><path fill-rule="evenodd" d="M 950 299 Q 950 146 834 63 Q 719 -20 511 -20 Q 309 -20 199 46 Q 90 113 57 254 L 216 285 Q 239 198 311 157 Q 383 117 511 117 Q 648 117 711 159 Q 775 201 775 285 Q 775 349 731 389 Q 687 429 589 455 L 460 489 Q 305 529 239 567 Q 174 606 137 661 Q 100 716 100 796 Q 100 944 205 1021 Q 311 1099 513 1099 Q 692 1099 797 1036 Q 903 973 931 834 L 769 814 Q 754 886 688 924 Q 623 963 513 963 Q 391 963 333 926 Q 275 889 275 814 Q 275 768 299 738 Q 323 708 370 687 Q 417 666 568 629 Q 711 593 774 562 Q 837 532 873 495 Q 910 458 930 409 Q 950 361 950 299 Z "/></g></g></g>
<g>
<g fill ="#000000" transform="translate(10 17.087890625) "><g fill ="#000000" transform="translate(0 0) scale(0.0048828125 -0.0048828125)"><path fill-rule="evenodd" d="M 317 1312 L 137 1312 L 137 1484 L 317 1484 L 317 1312 Z M 317 0 L 137 0 L 137 1082 L 317 1082 L 317 0 Z "/></g><g fill ="#000000" transform="translate(2.2216796875 0) scale(0.0048828125 -0.0048828125)"><path fill-rule="evenodd" d="M 572 951 L 361 951 L 361 0 L 181 0 L 181 951 L 29 951 L 29 1082 L 181 1082 L 181 1204 Q 181 1352 246 1417 Q 311 1482 445 1482 Q 520 1482 572 1470 L 572 1333 Q 527 1341 492 1341 Q 423 1341 392 1306 Q 361 1271 361 1179 L 361 1082 L 572 1082 L 572 951 Z "/></g><g fill ="#000000" transform="translate(5 0) scale(0.0048828125 -0.0048828125)"><path fill-rule="evenodd" d=""/></g><g fill ="#000000" transform="translate(7.7783203125 0) scale(0.0048828125 -0.0048828125)"><path fill-rule="evenodd" d=""/></g><g fill ="#000000" transform="translate(10.556640625 0) scale(0.0048828125 -0.0048828125)"><path fill-rule="evenodd" d=""/></g><g fill ="#000000" transform="translate(13.3349609375 0) scale(0.0048828125 -0.0048828125)"><path fill-rule="evenodd" d=""/></g><g fill ="#000000" transform="translate(16.11328125 0) scale(0.0048828125 -0.0048828125)"><path fill-rule="evenodd" d=""/></g><g fill ="#000000" transform="translate(18.8916015625 0) scale(0.0048828125 -0.0048828125)"><path fill-rule="evenodd" d=""/></g><g fill ="#000000" transform="translate(21.669921875 0) scale(0.0048828125 -0.0048828125)"><path fill-rule="evenodd" d="M 648 -425 L 513 -425 Q 386 -425 317 -348 Q 249 -271 249 -132 L 249 229 Q 249 346 196 403 Q 144 461 34 466 L 34 593 Q 143 597 196 654 Q 249 712 249 829 L 249 1191 Q 249 1332 315 1408 Q 382 1484 513 1484 L 648 1484 L 648 1355 L 585 1355 Q 494 1355 455 1301 Q 417 1248 417 1140 L 417 784 Q 417 690 364 621 Q 311 553 223 532 L 223 530 Q 312 509 364 441 Q 417 373 417 276 L 417 -81 Q 417 -187 455 -241 Q 494 -296 585 -296 L 648 -296 L 648 -425 Z "/></g></g><path d="M 5.5 5.5 L 41.5 5.5 L 41.5 23.5 L 19 23.5 L 19 64 L 5.5 64 L 5.5 5.5 z" stroke="#000000" stroke-width="0.5" fill="none" stroke-dasharray="1.003125 1.503125"/>
<path d="M 19 10 L 19 19 L 28 19 L 28 10 L 19 10 z" stroke="#000000" stroke-width="0.5" fill="none" stroke-dasharray="1.003125 1.503125"/>
<path d="M 19 37 L 37 37 L 37 23.5 " stroke="#000000" stroke-width="0.5" fill="none" stroke-dasharray="1.003125 1.503125"/>
<path d="M 37 37 L 55 37 L 55 23.5 " stroke="#000000" stroke-width="0.5" fill="none" stroke-dasharray="1.003125 1.503125"/>
<path d="M 55 37 L 68.5 37 L 68.5 23.5 L 55 23.5 L 41.5 23.5 " stroke="#000000" stroke-width="0.5" fill="none" stroke-dasharray="1.003125 1.503125"/>
<g fill ="#000000" transform="translate(10 59.5) "><g fill ="#000000" transform="translate(0 0) scale(0.0048828125 -0.0048828125)"><path fill-rule="evenodd" d="M 34 -296 L 94 -296 Q 185 -296 224 -241 Q 264 -187 264 -81 L 264 276 Q 264 374 316 442 Q 368 510 457 530 L 457 532 Q 371 552 317 619 Q 264 687 264 784 L 264 1140 Q 264 1248 224 1301 Q 185 1355 94 1355 L 34 1355 L 34 1484 L 166 1484 Q 297 1484 363 1408 Q 430 1332 430 1191 L 430 829 Q 430 713 483 655 Q 536 597 647 593 L 647 466 Q 535 462 482 404 Q 430 346 430 229 L 430 -132 Q 430 -270 361 -347 Q 293 -425 166 -425 L 34 -425 L 34 -296 Z "/></g></g><g fill ="#000000" transform="translate(23.5 32.5) "><g fill ="#000000" transform="translate(0 0) scale(0.0048828125 -0.0048828125)"><path fill-rule="evenodd" d="M 382 0 L 187 0 L 187 219 L 382 219 L 382 0 Z "/></g><g fill ="#000000" transform="translate(2.7783203125 0) scale(0.0048828125 -0.0048828125)"><path fill-rule="evenodd" d="M 414 -20 Q 251 -20 169 66 Q 87 152 87 302 Q 87 470 197 560 Q 308 650 554 656 L 797 660 L 797 719 Q 797 851 741 908 Q 685 965 565 965 Q 444 965 389 924 Q 334 883 323 793 L 135 810 Q 181 1102 569 1102 Q 773 1102 876 1008 Q 979 915 979 738 L 979 272 Q 979 192 1000 151 Q 1021 111 1080 111 Q 1106 111 1139 118 L 1139 6 Q 1071 -10 1000 -10 Q 900 -10 854 42 Q 809 95 803 207 L 797 207 Q 728 83 636 31 Q 545 -20 414 -20 Z M 455 115 Q 554 115 631 160 Q 708 205 752 283 Q 797 362 797 445 L 797 534 L 600 530 Q 473 528 407 504 Q 342 480 307 430 Q 272 380 272 299 Q 272 211 319 163 Q 367 115 455 115 Z "/></g></g><g fill ="#000000" transform="translate(41.57951156315245 32.93731359733843) "><g fill ="#000000" transform="translate(0 0) scale(0.0048828125 -0.0048828125)"><path fill-rule="evenodd" d="M 382 875 L 187 875 L 187 1082 L 382 1082 L 382 875 Z M 382 0 L 187 0 L 187 207 L 382 207 L 382 0 Z "/></g><g fill ="#000000" transform="translate(2.7783203125 0) scale(0.0048828125 -0.0048828125)"><path fill-rule="evenodd" d="M 1095 856 L 100 856 L 100 1004 L 1095 1004 L 1095 856 Z M 1095 344 L 100 344 L 100 492 L 1095 492 L 1095 344 Z "/></g></g><g fill ="#000000" transform="translate(59.06268640266157 33.97096391832018) "><g fill ="#000000" transform="translate(0 0) scale(0.0048828125 -0.0048828125)"><path fill-rule="evenodd" d="M 1059 705 Q 1059 352 934 166 Q 810 -20 567 -20 Q 324 -20 202 165 Q 80 350 80 705 Q 80 1068 198 1249 Q 317 1430 573 1430 Q 822 1430 940 1247 Q 1059 1064 1059 705 Z M 876 705 Q 876 1010 805 1147 Q 735 1284 573 1284 Q 407 1284 334 1149 Q 262 1014 262 705 Q 262 405 335 266 Q 409 127 569 127 Q 728 127 802 269 Q 876 411 876 705 Z "/></g></g><path d="M 19.75440602622424 38.83877272204174 L 19.69293225742505 49.55014146614815 " stroke="#000000" stroke-width="4" fill="none"/>
</g>
</svg>