<?xml version="1.0" encoding="UTF-8"?>
<!DOCTYPE svg PUBLIC "-//W3C//DTD SVG 1.1//EN" "http://www.w3.org/Graphics/SVG/1.1/DTD/svg11.dtd">
<svg xmlns="http://www.w3.org/2000/svg" xmlns:xlink="http://www.w3.org/1999/xlink" xmlns:xml="http://www.w3.org/XML/1998/namespace" width="2.6373690573705284in" height="2.2777777777777777in" viewBox="0 0 189.89057213067804 164" stroke-linecap="round" stroke-linejoin="round" xml:space="preserve" >
<defs><style>
text { white-space: pre; }
</style></defs>
<g>
<path d="M 1 104.5 L 1 163 L 109 163 L 109 104.5 L 1 104.5 z" fill="#eeeeee" />
<path d="M 1 1 L 1 104.5 L 109 104.5 L 109 1 L 1 1 z" stroke="#000000" stroke-width="2" fill="none"/>
<path d="M 1 104.5 L 1 163 L 109 163 L 109 104.5 L 1 104.5 z" stroke="#000000" stroke-width="2" fill="none"/>
</g>
<g>
<path d="M 91 140.5 L 91 142.75 L 86.5 142.75 " stroke="#000000" stroke-width="1.5" fill="none"/>
<g transform="translate(86.5 142.75) scale(1.5) rotate(-180) scale( 1 -1) "><path d="M -0.5 -1.5 L -0.5 1.5 L 2 0 L -0.5 -1.5 z" fill="#000000" />
</g><g>
<path d="M 91 128.5 L 94 125.5 L 100 125.5 L 100 131.5 L 94 131.5 L 91 128.5 z" stroke="#000000" stroke-width="1" fill="none"/>
<g>
<path d="M 95.5 127 L 98.5 130 " stroke="#000000" stroke-width="1" fill="none"/>
<path d="M 95.5 130 L 98.5 127 " stroke="#000000" stroke-width="1" fill="none"/>
</g>
</g>
<g fill ="#000000" transform="translate(10 118) "><g fill ="#000000" transform="translate(0 0) scale(0.006018090027744067 -0.006018090027744067)"><path fill-rule="evenodd" d="M 484 -20 Q 278 -20 182 119 Q 86 258 86 536 Q 86 1102 484 1102 Q 607 1102 687 1058 Q 767 1015 821 914 L 823 914 Q 823 944 827 1017 Q 831 1091 835 1096 L 1008 1096 Q 1001 1037 1001 801 L 1001 -425 L 821 -425 L 821 14 L 825 178 L 823 178 Q 769 71 690 25 Q 611 -20 484 -20 Z M 821 554 Q 821 765 752 867 Q 683 969 532 969 Q 395 969 335 867 Q 275 765 275 542 Q 275 315 335 217 Q 396 119 530 119 Q 683 119 752 228 Q 821 337 821 554 Z "/></g><g fill ="#000000" transform="translate(6.854604541600492 0) scale(0.006018090027744067 -0.006018090027744067)"><path fill-rule="evenodd" d=""/></g><g fill ="#000000" transform="translate(10.278897767386866 0) scale(0.006018090027744067 -0.006018090027744067)"><path fill-rule="evenodd" d="M 1484 1082 L 1174 0 L 965 0 L 776 765 L 740 934 Q 731 889 712 804 Q 693 720 508 0 L 300 0 L -3 1082 L 175 1082 L 358 347 Q 365 323 401 149 L 418 223 L 644 1082 L 837 1082 L 1026 339 L 1072 149 L 1103 288 L 1308 1082 L 1484 1082 Z "/></g><g fill ="#000000" transform="translate(19.17965291842034 0) scale(0.006018090027744067 -0.006018090027744067)"><path fill-rule="evenodd" d=""/></g><g fill ="#000000" transform="translate(22.603946144206716 0) scale(0.006018090027744067 -0.006018090027744067)"><path fill-rule="evenodd" d="M 1048 503 L 276 503 Q 276 317 353 216 Q 430 115 578 115 Q 695 115 765 162 Q 836 209 861 281 L 1019 236 Q 922 -20 578 -20 Q 338 -20 212 123 Q 87 266 87 548 Q 87 816 212 959 Q 338 1102 571 1102 Q 1048 1102 1048 527 L 1048 503 Z M 278 641 L 862 641 Q 847 812 775 890 Q 703 969 568 969 Q 437 969 360 881 Q 284 794 278 641 Z "/></g><g fill ="#000000" transform="translate(29.458550685807207 0) scale(0.006018090027744067 -0.006018090027744067)"><path fill-rule="evenodd" d=""/></g><g fill ="#000000" transform="translate(32.88284391159358 0) scale(0.006018090027744067 -0.006018090027744067)"><path fill-rule="evenodd" d="M 322 0 L 142 0 L 142 830 Q 142 944 136 1082 L 306 1082 Q 314 898 314 861 L 318 861 Q 361 1000 417 1051 Q 473 1102 575 1102 Q 611 1102 648 1092 L 648 927 Q 612 937 552 937 Q 440 937 381 840 Q 322 744 322 564 L 322 0 Z "/></g><g fill ="#000000" transform="translate(36.987181310515034 0) scale(0.006018090027744067 -0.006018090027744067)"><path fill-rule="evenodd" d=""/></g><g fill ="#000000" transform="translate(40.41147453630141 0) scale(0.006018090027744067 -0.006018090027744067)"><path fill-rule="evenodd" d="M 554 141 L 554 8 Q 465 -16 372 -16 Q 156 -16 156 229 L 156 951 L 31 951 L 31 1082 L 163 1082 L 216 1324 L 336 1324 L 336 1082 L 536 1082 L 536 951 L 336 951 L 336 268 Q 336 190 361 158 Q 387 127 450 127 Q 486 127 554 141 Z "/></g><g fill ="#000000" transform="translate(43.835767762087784 0) scale(0.006018090027744067 -0.006018090027744067)"><path fill-rule="evenodd" d=""/></g><g fill ="#000000" transform="translate(47.260060987874155 0) scale(0.006018090027744067 -0.006018090027744067)"><path fill-rule="evenodd" d="M 191 -425 Q 117 -425 67 -414 L 67 -279 Q 105 -285 151 -285 Q 319 -285 417 -38 L 434 5 L 5 1082 L 197 1082 L 425 484 Q 430 470 437 450 Q 444 431 482 320 Q 520 209 523 196 L 593 393 L 830 1082 L 1020 1082 L 604 0 Q 537 -173 479 -257 Q 421 -342 350 -383 Q 280 -425 191 -425 Z "/></g><g fill ="#000000" transform="translate(53.42258517628408 0) scale(0.006018090027744067 -0.006018090027744067)"><path fill-rule="evenodd" d=""/></g><g fill ="#000000" transform="translate(56.84687840207045 0) scale(0.006018090027744067 -0.006018090027744067)"><path fill-rule="evenodd" d="M 133 1082 L 314 1082 L 314 396 Q 314 289 335 230 Q 356 171 402 145 Q 448 119 537 119 Q 667 119 742 208 Q 817 297 817 455 L 817 1082 L 997 1082 L 997 231 Q 997 42 1003 0 L 833 0 Q 832 5 831 27 Q 830 49 828 77 Q 827 106 825 185 L 822 185 Q 760 73 678 26 Q 597 -20 476 -20 Q 298 -20 215 68 Q 133 157 133 361 L 133 1082 Z "/></g><g fill ="#000000" transform="translate(63.701482943670946 0) scale(0.006018090027744067 -0.006018090027744067)"><path fill-rule="evenodd" d=""/></g><g fill ="#000000" transform="translate(67.12577616945732 0) scale(0.006018090027744067 -0.006018090027744067)"><path fill-rule="evenodd" d="M 317 1312 L 137 1312 L 137 1484 L 317 1484 L 317 1312 Z M 317 0 L 137 0 L 137 1082 L 317 1082 L 317 0 Z "/></g><g fill ="#000000" transform="translate(69.86400713208087 0) scale(0.006018090027744067 -0.006018090027744067)"><path fill-rule="evenodd" d=""/></g><g fill ="#000000" transform="translate(73.28830035786724 0) scale(0.006018090027744067 -0.006018090027744067)"><path fill-rule="evenodd" d="M 1053 542 Q 1053 258 928 119 Q 803 -20 565 -20 Q 328 -20 207 124 Q 86 269 86 542 Q 86 1102 571 1102 Q 819 1102 936 965 Q 1053 829 1053 542 Z M 864 542 Q 864 766 797 867 Q 731 969 574 969 Q 416 969 345 865 Q 275 762 275 542 Q 275 328 344 220 Q 414 113 563 113 Q 725 113 794 217 Q 864 321 864 542 Z "/></g><g fill ="#000000" transform="translate(80.14290489946774 0) scale(0.006018090027744067 -0.006018090027744067)"><path fill-rule="evenodd" d=""/></g><g fill ="#000000" transform="translate(83.56719812525411 0) scale(0.006018090027744067 -0.006018090027744067)"><path fill-rule="evenodd" d="M 1053 546 Q 1053 -20 655 -20 Q 405 -20 319 168 L 314 168 Q 318 160 318 -2 L 318 -425 L 138 -425 L 138 861 Q 138 1028 132 1082 L 306 1082 Q 307 1078 309 1053 Q 311 1029 313 978 Q 316 927 316 908 L 320 908 Q 368 1008 447 1054 Q 526 1101 655 1101 Q 855 1101 954 967 Q 1053 833 1053 546 Z M 864 542 Q 864 768 803 865 Q 742 962 609 962 Q 502 962 441 917 Q 381 872 349 776 Q 318 681 318 528 Q 318 315 386 214 Q 454 113 607 113 Q 741 113 802 211 Q 864 310 864 542 Z "/></g></g><g fill ="#000000" transform="translate(10 131.5) "><g fill ="#000000" transform="translate(0 0) scale(0.006018090027744067 -0.006018090027744067)"><path fill-rule="evenodd" d="M 414 -20 Q 251 -20 169 66 Q 87 152 87 302 Q 87 470 197 560 Q 308 650 554 656 L 797 660 L 797 719 Q 797 851 741 908 Q 685 965 565 965 Q 444 965 389 924 Q 334 883 323 793 L 135 810 Q 181 1102 569 1102 Q 773 1102 876 1008 Q 979 915 979 738 L 979 272 Q 979 192 1000 151 Q 1021 111 1080 111 Q 1106 111 1139 118 L 1139 6 Q 1071 -10 1000 -10 Q 900 -10 854 42 Q 809 95 803 207 L 797 207 Q 728 83 636 31 Q 545 -20 414 -20 Z M 455 115 Q 554 115 631 160 Q 708 205 752 283 Q 797 362 797 445 L 797 534 L 600 530 Q 473 528 407 504 Q 342 480 307 430 Q 272 380 272 299 Q 272 211 319 163 Q 367 115 455 115 Z "/></g><g fill ="#000000" transform="translate(6.854604541600492 0) scale(0.006018090027744067 -0.006018090027744067)"><path fill-rule="evenodd" d=""/></g><g fill ="#000000" transform="translate(10.278897767386866 0) scale(0.006018090027744067 -0.006018090027744067)"><path fill-rule="evenodd" d="M 950 299 Q 950 146 834 63 Q 719 -20 511 -20 Q 309 -20 199 46 Q 90 113 57 254 L 216 285 Q 239 198 311 157 Q 383 117 511 117 Q 648 117 711 159 Q 775 201 775 285 Q 775 349 731 389 Q 687 429 589 455 L 460 489 Q 305 529 239 567 Q 174 606 137 661 Q 100 716 100 796 Q 100 944 205 1021 Q 311 1099 513 1099 Q 692 1099 797 1036 Q 903 973 931 834 L 769 814 Q 754 886 688 924 Q 623 963 513 963 Q 391 963 333 926 Q 275 889 275 814 Q 275 768 299 738 Q 323 708 370 687 Q 417 666 568 629 Q 711 593 774 562 Q 837 532 873 495 Q 910 458 930 409 Q 950 361 950 299 Z "/></g><g fill ="#000000" transform="translate(16.44142195579679 0) scale(0.006018090027744067 -0.006018090027744067)"><path fill-rule="evenodd" d=""/></g><g fill ="#000000" transform="translate(19.865715181583166 0) scale(0.006018090027744067 -0.006018090027744067)"><path fill-rule="evenodd" d="M 825 174 L 821 174 Q 771 70 688 25 Q 606 -20 484 -20 Q 279 -20 182 118 Q 86 256 86 536 Q 86 1102 484 1102 Q 607 1102 689 1057 Q 771 1012 821 914 L 823 914 L 821 1035 L 821 1484 L 1001 1484 L 1001 223 Q 1001 54 1007 0 L 835 0 Q 832 16 828 74 Q 825 132 825 174 Z M 275 542 Q 275 315 335 217 Q 395 119 530 119 Q 683 119 752 225 Q 821 331 821 554 Q 821 769 752 869 Q 683 969 532 969 Q 396 969 335 868 Q 275 768 275 542 Z "/></g><g fill ="#000000" transform="translate(26.720319723183657 0) scale(0.006018090027744067 -0.006018090027744067)"><path fill-rule="evenodd" d=""/></g><g fill ="#000000" transform="translate(30.144612948970032 0) scale(0.006018090027744067 -0.006018090027744067)"><path fill-rule="evenodd" d="M 572 951 L 361 951 L 361 0 L 181 0 L 181 951 L 29 951 L 29 1082 L 181 1082 L 181 1204 Q 181 1352 246 1417 Q 311 1482 445 1482 Q 520 1482 572 1470 L 572 1333 Q 527 1341 492 1341 Q 423 1341 392 1306 Q 361 1271 361 1179 L 361 1082 L 572 1082 L 572 951 Z "/></g><g fill ="#000000" transform="translate(33.56890617475641 0) scale(0.006018090027744067 -0.006018090027744067)"><path fill-rule="evenodd" d=""/></g><g fill ="#000000" transform="translate(36.99319940054278 0) scale(0.006018090027744067 -0.006018090027744067)"><path fill-rule="evenodd" d="M 548 -425 Q 371 -425 266 -355 Q 161 -286 131 -158 L 312 -132 Q 330 -207 391 -247 Q 453 -288 553 -288 Q 822 -288 822 27 L 822 201 L 820 201 Q 769 97 680 44 Q 591 -8 472 -8 Q 273 -8 179 124 Q 86 256 86 539 Q 86 826 186 962 Q 287 1099 492 1099 Q 607 1099 691 1046 Q 776 994 822 897 L 824 897 Q 824 927 828 1001 Q 832 1075 836 1082 L 1007 1082 Q 1001 1028 1001 858 L 1001 31 Q 1001 -425 548 -425 Z M 822 541 Q 822 673 786 768 Q 750 864 684 914 Q 619 965 536 965 Q 398 965 335 865 Q 272 765 272 541 Q 272 319 331 222 Q 390 125 533 125 Q 618 125 684 175 Q 750 225 786 318 Q 822 412 822 541 Z "/></g><g fill ="#000000" transform="translate(43.84780394214327 0) scale(0.006018090027744067 -0.006018090027744067)"><path fill-rule="evenodd" d=""/></g><g fill ="#000000" transform="translate(47.272097167929644 0) scale(0.006018090027744067 -0.006018090027744067)"><path fill-rule="evenodd" d="M 314 897 L 317 897 Q 375 1003 456 1052 Q 538 1102 663 1102 Q 839 1102 922 1014 Q 1006 927 1006 721 L 1006 0 L 825 0 L 825 686 Q 825 800 804 855 Q 783 911 735 937 Q 687 963 602 963 Q 475 963 398 875 Q 322 787 322 638 L 322 0 L 142 0 L 142 1484 L 322 1484 L 322 1098 Q 322 1037 318 972 Q 315 907 314 897 Z "/></g><g fill ="#000000" transform="translate(54.12670170953014 0) scale(0.006018090027744067 -0.006018090027744067)"><path fill-rule="evenodd" d=""/></g><g fill ="#000000" transform="translate(57.55099493531651 0) scale(0.006018090027744067 -0.006018090027744067)"><path fill-rule="evenodd" d="M 317 1312 L 137 1312 L 137 1484 L 317 1484 L 317 1312 Z M 317 1082 L 317 -134 Q 317 -287 257 -356 Q 197 -425 77 -425 Q 0 -425 -50 -416 L -50 -277 L 12 -283 Q 81 -283 109 -247 Q 137 -211 137 -107 L 137 1082 L 317 1082 Z "/></g><g fill ="#000000" transform="translate(60.289225897940064 0) scale(0.006018090027744067 -0.006018090027744067)"><path fill-rule="evenodd" d=""/></g><g fill ="#000000" transform="translate(63.713519123726435 0) scale(0.006018090027744067 -0.006018090027744067)"><path fill-rule="evenodd" d="M 1027 0 L 816 0 L 450 494 L 318 385 L 318 0 L 138 0 L 138 1484 L 318 1484 L 318 557 L 793 1082 L 1004 1082 L 565 617 L 1027 0 Z "/></g><g fill ="#000000" transform="translate(69.87604331213636 0) scale(0.006018090027744067 -0.006018090027744067)"><path fill-rule="evenodd" d=""/></g><g fill ="#000000" transform="translate(73.30033653792273 0) scale(0.006018090027744067 -0.006018090027744067)"><path fill-rule="evenodd" d="M 318 0 L 138 0 L 138 1484 L 318 1484 L 318 0 Z "/></g></g><g fill ="#000000" transform="translate(10 145) "><g fill ="#000000" transform="translate(0 0) scale(0.006018090027744067 -0.006018090027744067)"><path fill-rule="evenodd" d="M 922 0 L 83 0 L 83 137 L 688 943 L 117 943 L 117 1082 L 901 1082 L 901 945 L 295 139 L 922 139 L 922 0 Z "/></g><g fill ="#000000" transform="translate(6.162524188409924 0) scale(0.006018090027744067 -0.006018090027744067)"><path fill-rule="evenodd" d=""/></g><g fill ="#000000" transform="translate(9.586817414196299 0) scale(0.006018090027744067 -0.006018090027744067)"><path fill-rule="evenodd" d="M 1002 0 L 801 0 L 510 444 L 217 0 L 23 0 L 408 556 L 41 1082 L 240 1082 L 510 661 L 778 1082 L 979 1082 L 612 558 L 1002 0 Z "/></g><g fill ="#000000" transform="translate(15.749341602606222 0) scale(0.006018090027744067 -0.006018090027744067)"><path fill-rule="evenodd" d=""/></g><g fill ="#000000" transform="translate(19.173634828392597 0) scale(0.006018090027744067 -0.006018090027744067)"><path fill-rule="evenodd" d="M 275 546 Q 275 330 343 226 Q 411 122 548 122 Q 644 122 708 174 Q 773 226 788 334 L 970 322 Q 949 166 837 73 Q 725 -20 553 -20 Q 326 -20 206 123 Q 87 267 87 542 Q 87 815 207 958 Q 327 1102 551 1102 Q 717 1102 826 1016 Q 936 930 964 779 L 779 765 Q 765 855 708 908 Q 651 961 546 961 Q 403 961 339 866 Q 275 771 275 546 Z "/></g><g fill ="#000000" transform="translate(25.336159016802522 0) scale(0.006018090027744067 -0.006018090027744067)"><path fill-rule="evenodd" d=""/></g><g fill ="#000000" transform="translate(28.760452242588894 0) scale(0.006018090027744067 -0.006018090027744067)"><path fill-rule="evenodd" d="M 1017 1082 L 613 0 L 400 0 L 7 1082 L 199 1082 L 437 378 Q 450 338 506 141 L 541 258 L 580 376 L 826 1082 L 1017 1082 Z "/></g><g fill ="#000000" transform="translate(34.92297643099882 0) scale(0.006018090027744067 -0.006018090027744067)"><path fill-rule="evenodd" d=""/></g><g fill ="#000000" transform="translate(38.347269656785194 0) scale(0.006018090027744067 -0.006018090027744067)"><path fill-rule="evenodd" d="M 1053 546 Q 1053 -20 655 -20 Q 532 -20 450 24 Q 369 69 318 168 L 316 168 Q 316 137 312 73 Q 308 10 306 0 L 132 0 Q 138 54 138 223 L 138 1484 L 318 1484 L 318 1061 Q 318 996 314 908 L 318 908 Q 368 1012 450 1057 Q 533 1102 655 1102 Q 860 1102 956 964 Q 1053 826 1053 546 Z M 864 540 Q 864 767 804 865 Q 744 963 609 963 Q 457 963 387 859 Q 318 755 318 529 Q 318 316 386 214 Q 454 113 607 113 Q 743 113 803 213 Q 864 314 864 540 Z "/></g><g fill ="#000000" transform="translate(45.20187419838569 0) scale(0.006018090027744067 -0.006018090027744067)"><path fill-rule="evenodd" d=""/></g><g fill ="#000000" transform="translate(48.62616742417206 0) scale(0.006018090027744067 -0.006018090027744067)"><path fill-rule="evenodd" d="M 1006 0 L 825 0 L 825 686 Q 825 793 804 852 Q 783 911 737 937 Q 691 963 602 963 Q 472 963 397 874 Q 322 785 322 627 L 322 0 L 142 0 L 142 851 Q 142 1040 136 1082 L 306 1082 Q 307 1077 308 1055 Q 309 1033 310 1004 Q 312 976 314 897 L 317 897 Q 379 1009 460 1055 Q 542 1102 663 1102 Q 841 1102 923 1013 Q 1006 925 1006 721 L 1006 0 Z "/></g><g fill ="#000000" transform="translate(55.480771965772554 0) scale(0.006018090027744067 -0.006018090027744067)"><path fill-rule="evenodd" d=""/></g><g fill ="#000000" transform="translate(58.905065191558926 0) scale(0.006018090027744067 -0.006018090027744067)"><path fill-rule="evenodd" d="M 946 0 L 768 0 L 768 686 Q 768 843 725 903 Q 682 963 570 963 Q 455 963 388 875 Q 321 787 321 627 L 321 0 L 142 0 L 142 851 Q 142 1040 136 1082 L 306 1082 Q 307 1077 308 1055 Q 309 1033 310 1004 Q 312 976 314 897 L 317 897 Q 375 1012 450 1057 Q 525 1102 633 1102 Q 756 1102 827 1053 Q 899 1004 927 897 L 930 897 Q 986 1006 1065 1054 Q 1145 1102 1258 1102 Q 1422 1102 1496 1013 Q 1571 924 1571 721 L 1571 0 L 1393 0 L 1393 686 Q 1393 843 1350 903 Q 1307 963 1195 963 Q 1077 963 1011 875 Q 946 788 946 627 L 946 0 Z "/></g></g><g fill ="#000000" transform="translate(14.5 158.5) "><g fill ="#000000" transform="translate(0 0) scale(0.006018090027744067 -0.006018090027744067)"><path fill-rule="evenodd" d="M 190 219 L 385 219 L 385 51 Q 385 -55 366 -126 Q 347 -197 307 -262 L 184 -262 Q 278 -126 278 0 L 190 0 L 190 219 Z "/></g></g><g fill ="#000000" transform="translate(95.5 158.5) "><g fill ="#000000" transform="translate(0 0) scale(0.006018090027744067 -0.006018090027744067)"><path fill-rule="evenodd" d="M 382 0 L 187 0 L 187 219 L 382 219 L 382 0 Z "/></g></g><path d="M 23.5 149.5 L 23.5 158.5 L 86.5 158.5 L 86.5 149.5 L 23.5 149.5 z" stroke="#000000" stroke-width="1" fill="none"/>
</g>
<g>
<g fill ="#000000" transform="translate(10 17.087890625) "><g fill ="#000000" transform="translate(0 0) scale(0.0048828125 -0.0048828125)"><path fill-rule="evenodd" d="M 317 1312 L 137 1312 L 137 1484 L 317 1484 L 317 1312 Z M 317 0 L 137 0 L 137 1082 L 317 1082 L 317 0 Z "/></g><g fill ="#000000" transform="translate(2.2216796875 0) scale(0.0048828125 -0.0048828125)"><path fill-rule="evenodd" d="M 572 951 L 361 951 L 361 0 L 181 0 L 181 951 L 29 951 L 29 1082 L 181 1082 L 181 1204 Q 181 1352 246 1417 Q 311 1482 445 1482 Q 520 1482 572 1470 L 572 1333 Q 527 1341 492 1341 Q 423 1341 392 1306 Q 361 1271 361 1179 L 361 1082 L 572 1082 L 572 951 Z "/></g><g fill ="#000000" transform="translate(5 0) scale(0.0048828125 -0.0048828125)"><path fill-rule="evenodd" d=""/></g><g fill ="#000000" transform="translate(7.7783203125 0) scale(0.0048828125 -0.0048828125)"><path fill-rule="evenodd" d=""/></g><g fill ="#000000" transform="translate(10.556640625 0) scale(0.0048828125 -0.0048828125)"><path fill-rule="evenodd" d=""/></g><g fill ="#000000" transform="translate(13.3349609375 0) scale(0.0048828125 -0.0048828125)"><path fill-rule="evenodd" d=""/></g><g fill ="#000000" transform="translate(16.11328125 0) scale(0.0048828125 -0.0048828125)"><path fill-rule="evenodd" d=""/></g><g fill ="#000000" transform="translate(18.8916015625 0) scale(0.0048828125 -0.0048828125)"><path fill-rule="evenodd" d=""/></g><g fill ="#000000" transform="translate(21.669921875 0) scale(0.0048828125 -0.0048828125)"><path fill-rule="evenodd" d="M 648 -425 L 513 -425 Q 386 -425 317 -348 Q 249 -271 249 -132 L 249 229 Q 249 346 196 403 Q 144 461 34 466 L 34 593 Q 143 597 196 654 Q 249 712 249 829 L 249 1191 Q 249 1332 315 1408 Q 382 1484 513 1484 L 648 1484 L 648 1355 L 585 1355 Q 494 1355 455 1301 Q 417 1248 417 1140 L 417 784 Q 417 690 364 621 Q 311 553 223 532 L 223 530 Q 312 509 364 441 Q 417 373 417 276 L 417 -81 Q 417 -187 455 -241 Q 494 -296 585 -296 L 648 -296 L 648 -425 Z "/></g></g><path d="M 5.5 5.5 L 41.5 5.5 L 41.5 23.5 L 19 23.5 L 19 64 L 5.5 64 L 5.5 5.5 z" stroke="#000000" stroke-width="0.5" fill="none" stroke-dasharray="1.003125 1.503125"/>
<path d="M 19 10 L 19 19 L 28 19 L 28 10 L 19 10 z" stroke="#000000" stroke-width="0.5" fill="none" stroke-dasharray="1.003125 1.503125"/>
<path d="M 19 37 L 37 37 L 37 23.5 " stroke="#000000" stroke-width="0.5" fill="none" stroke-dasharray="1.003125 1.503125"/>
<path d="M 37 37 L 55 37 L 55 23.5 " stroke="#000000" stroke-width="0.5" fill="none" stroke-dasharray="1.003125 1.503125"/>
<path d="M 55 37 L 68.5 37 L 68.5 23.5 L 55 23.5 L 41.5 23.5 " stroke="#000000" stroke-width="0.5" fill="none" stroke-dasharray="1.003125 1.503125"/>
<g fill ="#000000" transform="translate(10 59.5) "><g fill ="#000000" transform="translate(0 0) scale(0.0048828125 -0.0048828125)"><path fill-rule="evenodd" d="M 34 -296 L 94 -296 Q 185 -296 224 -241 Q 264 -187 264 -81 L 264 276 Q 264 374 316 442 Q 368 510 457 530 L 457 532 Q 371 552 317 619 Q 264 687 264 784 L 264 1140 Q 264 1248 224 1301 Q 185 1355 94 1355 L 34 1355 L 34 1484 L 166 1484 Q 297 1484 363 1408 Q 430 1332 430 1191 L 430 829 Q 430 713 483 655 Q 536 597 647 593 L 647 466 Q 535 462 482 404 Q 430 346 430 229 L 430 -132 Q 430 -270 361 -347 Q 293 -425 166 -425 L 34 -425 L 34 -296 Z "/></g></g><g fill ="#000000" transform="translate(23.5 32.5) "><g fill ="#000000" transform="translate(0 0) scale(0.0048828125 -0.0048828125)"><path fill-rule="evenodd" d="M 382 0 L 187 0 L 187 219 L 382 219 L 382 0 Z "/></g><g fill ="#000000" transform="translate(2.7783203125 0) scale(0.0048828125 -0.0048828125)"><path fill-rule="evenodd" d="M 414 -20 Q 251 -20 169 66 Q 87 152 87 302 Q 87 470 197 560 Q 308 650 554 656 L 797 660 L 797 719 Q 797 851 741 908 Q 685 965 565 965 Q 444 965 389 924 Q 334 883 323 793 L 135 810 Q 181 1102 569 1102 Q 773 1102 876 1008 Q 979 915 979 738 L 979 272 Q 979 192 1000 151 Q 1021 111 1080 111 Q 1106 111 1139 118 L 1139 6 Q 1071 -10 1000 -10 Q 900 -10 854 42 Q 809 95 803 207 L 797 207 Q 728 83 636 31 Q 545 -20 414 -20 Z M 455 115 Q 554 115 631 160 Q 708 205 752 283 Q 797 362 797 445 L 797 534 L 600 530 Q 473 528 407 504 Q 342 480 307 430 Q 272 380 272 299 Q 272 211 319 163 Q 367 115 455 115 Z "/></g></g><g fill ="#000000" transform="translate(41.57951156315245 32.93731359733843) "><g fill ="#000000" transform="translate(0 0) scale(0.0048828125 -0.0048828125)"><path fill-rule="evenodd" d="M 382 875 L 187 875 L 187 1082 L 382 1082 L 382 875 Z M 382 0 L 187 0 L 187 207 L 382 207 L 382 0 Z "/></g><g fill ="#000000" transform="translate(2.7783203125 0) scale(0.0048828125 -0.0048828125)"><path fill-rule="evenodd" d="M 1095 856 L 100 856 L 100 1004 L 1095 1004 L 1095 856 Z M 1095 344 L 100 344 L 100 492 L 1095 492 L 1095 344 Z "/></g></g><g fill ="#000000" transform="translate(59.06268640266157 33.97096391832018) "><g fill ="#000000" transform="translate(0 0) scale(0.0048828125 -0.0048828125)"><path fill-rule="evenodd" d="M 1059 705 Q 1059 352 934 166 Q 810 -20 567 -20 Q 324 -20 202 165 Q 80 350 80 705 Q 80 1068 198 1249 Q 317 1430 573 1430 Q 822 1430 940 1247 Q 1059 1064 1059 705 Z M 876 705 Q 876 1010 805 1147 Q 735 1284 573 1284 Q 407 1284 334 1149 Q 262 1014 262 705 Q 262 405 335 266 Q 409 127 569 127 Q 728 127 802 269 Q 876 411 876 705 Z "/></g></g><path d="M 19.75440602622424 38.83877272204174 L 19.69293225742505 49.55014146614815 " stroke="#000000" stroke-width="4" fill="none"/>
</g>
<g>
<path d="M 91 86.5 L 91 104.5 L 109 104.5 L 109 86.5 L 91 86.5 z" fill="#eeeeee" />
<g fill ="#000000" transform="translate(5.5 100) "><g fill ="#000000" transform="translate(0 0) scale(0.006018090027744067 -0.006018090027744067)"><path fill-rule="evenodd" d="M 1053 546 Q 1053 -20 655 -20 Q 405 -20 319 168 L 314 168 Q 318 160 318 -2 L 318 -425 L 138 -425 L 138 861 Q 138 1028 132 1082 L 306 1082 Q 307 1078 309 1053 Q 311 1029 313 978 Q 316 927 316 908 L 320 908 Q 368 1008 447 1054 Q 526 1101 655 1101 Q 855 1101 954 967 Q 1053 833 1053 546 Z M 864 542 Q 864 768 803 865 Q 742 962 609 962 Q 502 962 441 917 Q 381 872 349 776 Q 318 681 318 528 Q 318 315 386 214 Q 454 113 607 113 Q 741 113 802 211 Q 864 310 864 542 Z "/></g><g fill ="#000000" transform="translate(6.854604541600492 0) scale(0.006018090027744067 -0.006018090027744067)"><path fill-rule="evenodd" d="M 322 0 L 142 0 L 142 830 Q 142 944 136 1082 L 306 1082 Q 314 898 314 861 L 318 861 Q 361 1000 417 1051 Q 473 1102 575 1102 Q 611 1102 648 1092 L 648 927 Q 612 937 552 937 Q 440 937 381 840 Q 322 744 322 564 L 322 0 Z "/></g></g><path d="M 19.06147376879919 91 L 19 100 " stroke="#000000" stroke-width="4" fill="none"/>
<path d="M 95.5 95.5 L 100 95.5 " stroke="#000000" stroke-width="2" fill="none"/>
<g transform="translate(100 95.5) scale(2) rotate(-360) scale( 1 -1) "><path d="M -0.5 -1.5 L -0.5 1.5 L 2 0 L -0.5 -1.5 z" fill="#000000" />
</g><path d="M 109 86.5 L 109 104.5 L 91 104.5 L 91 86.5 L 109 86.5 z" stroke="#000000" stroke-width="2" fill="none"/>
<path d="M 109 86.5 L 1 86.5 " stroke="#000000" stroke-width="2" fill="none"/>
</g>
<g>
<path d="M 73 1 L 73 86.5 L 109 86.5 L 109 1 L 73 1 z" fill="#eeeeee" />
<path d="M 109 1 L 109 86.5 L 72.99999999999999 86.5 L 72.99999999999999 1 L 109 1 z" stroke="#000000" stroke-width="2" fill="none"/>
<g fill ="#000000" transform="translate(77.5 14.5) "><g fill ="#000000" transform="translate(0 0) scale(0.00439453125 -0.00439453125)"><path fill-rule="evenodd" d="M 1053 546 Q 1053 -20 655 -20 Q 405 -20 319 168 L 314 168 Q 318 160 318 -2 L 318 -425 L 138 -425 L 138 861 Q 138 1028 132 1082 L 306 1082 Q 307 1078 309 1053 Q 311 1029 313 978 Q 316 927 316 908 L 320 908 Q 368 1008 447 1054 Q 526 1101 655 1101 Q 855 1101 954 967 Q 1053 833 1053 546 Z M 864 542 Q 864 768 803 865 Q 742 962 609 962 Q 502 962 441 917 Q 381 872 349 776 Q 318 681 318 528 Q 318 315 386 214 Q 454 113 607 113 Q 741 113 802 211 Q 864 310 864 542 Z "/></g><g fill ="#000000" transform="translate(5.00537109375 0) scale(0.00439453125 -0.00439453125)"><path fill-rule="evenodd" d="M 322 0 L 142 0 L 142 830 Q 142 944 136 1082 L 306 1082 Q 314 898 314 861 L 318 861 Q 361 1000 417 1051 Q 473 1102 575 1102 Q 611 1102 648 1092 L 648 927 Q 612 937 552 937 Q 440 937 381 840 Q 322 744 322 564 L 322 0 Z "/></g><g fill ="#000000" transform="translate(8.00244140625 0) scale(0.00439453125 -0.00439453125)"><path fill-rule="evenodd" d="M 317 1312 L 137 1312 L 137 1484 L 317 1484 L 317 1312 Z M 317 0 L 137 0 L 137 1082 L 317 1082 L 317 0 Z "/></g><g fill ="#000000" transform="translate(10.001953125 0) scale(0.00439453125 -0.00439453125)"><path fill-rule="evenodd" d="M 1006 0 L 825 0 L 825 686 Q 825 793 804 852 Q 783 911 737 937 Q 691 963 602 963 Q 472 963 397 874 Q 322 785 322 627 L 322 0 L 142 0 L 142 851 Q 142 1040 136 1082 L 306 1082 Q 307 1077 308 1055 Q 309 1033 310 1004 Q 312 976 314 897 L 317 897 Q 379 1009 460 1055 Q 542 1102 663 1102 Q 841 1102 923 1013 Q 1006 925 1006 721 L 1006 0 Z "/></g><g fill ="#000000" transform="translate(15.00732421875 0) scale(0.00439453125 -0.00439453125)"><path fill-rule="evenodd" d="M 554 141 L 554 8 Q 465 -16 372 -16 Q 156 -16 156 229 L 156 951 L 31 951 L 31 1082 L 163 1082 L 216 1324 L 336 1324 L 336 1082 L 536 1082 L 536 951 L 336 951 L 336 268 Q 336 190 361 158 Q 387 127 450 127 Q 486 127 554 141 Z "/></g></g><g fill ="#000000" transform="translate(77.5 55) "><g fill ="#000000" transform="translate(0 0) scale(0.00439453125 -0.00439453125)"><path fill-rule="evenodd" d="M 1053 546 Q 1053 -20 655 -20 Q 405 -20 319 168 L 314 168 Q 318 160 318 -2 L 318 -425 L 138 -425 L 138 861 Q 138 1028 132 1082 L 306 1082 Q 307 1078 309 1053 Q 311 1029 313 978 Q 316 927 316 908 L 320 908 Q 368 1008 447 1054 Q 526 1101 655 1101 Q 855 1101 954 967 Q 1053 833 1053 546 Z M 864 542 Q 864 768 803 865 Q 742 962 609 962 Q 502 962 441 917 Q 381 872 349 776 Q 318 681 318 528 Q 318 315 386 214 Q 454 113 607 113 Q 741 113 802 211 Q 864 310 864 542 Z "/></g><g fill ="#000000" transform="translate(5.00537109375 0) scale(0.00439453125 -0.00439453125)"><path fill-rule="evenodd" d="M 322 0 L 142 0 L 142 830 Q 142 944 136 1082 L 306 1082 Q 314 898 314 861 L 318 861 Q 361 1000 417 1051 Q 473 1102 575 1102 Q 611 1102 648 1092 L 648 927 Q 612 937 552 937 Q 440 937 381 840 Q 322 744 322 564 L 322 0 Z "/></g><g fill ="#000000" transform="translate(8.00244140625 0) scale(0.00439453125 -0.00439453125)"><path fill-rule="evenodd" d="M 1053 542 Q 1053 258 928 119 Q 803 -20 565 -20 Q 328 -20 207 124 Q 86 269 86 542 Q 86 1102 571 1102 Q 819 1102 936 965 Q 1053 829 1053 542 Z M 864 542 Q 864 766 797 867 Q 731 969 574 969 Q 416 969 345 865 Q 275 762 275 542 Q 275 328 344 220 Q 414 113 563 113 Q 725 113 794 217 Q 864 321 864 542 Z "/></g><g fill ="#000000" transform="translate(13.0078125 0) scale(0.00439453125 -0.00439453125)"><path fill-rule="evenodd" d="M 946 0 L 768 0 L 768 686 Q 768 843 725 903 Q 682 963 570 963 Q 455 963 388 875 Q 321 787 321 627 L 321 0 L 142 0 L 142 851 Q 142 1040 136 1082 L 306 1082 Q 307 1077 308 1055 Q 309 1033 310 1004 Q 312 976 314 897 L 317 897 Q 375 1012 450 1057 Q 525 1102 633 1102 Q 756 1102 827 1053 Q 899 1004 927 897 L 930 897 Q 986 1006 1065 1054 Q 1145 1102 1258 1102 Q 1422 1102 1496 1013 Q 1571 924 1571 721 L 1571 0 L 1393 0 L 1393 686 Q 1393 843 1350 903 Q 1307 963 1195 963 Q 1077 963 1011 875 Q 946 788 946 627 L 946 0 Z "/></g><g fill ="#000000" transform="translate(20.5048828125 0) scale(0.00439453125 -0.00439453125)"><path fill-rule="evenodd" d="M 1053 546 Q 1053 -20 655 -20 Q 405 -20 319 168 L 314 168 Q 318 160 318 -2 L 318 -425 L 138 -425 L 138 861 Q 138 1028 132 1082 L 306 1082 Q 307 1078 309 1053 Q 311 1029 313 978 Q 316 927 316 908 L 320 908 Q 368 1008 447 1054 Q 526 1101 655 1101 Q 855 1101 954 967 Q 1053 833 1053 546 Z M 864 542 Q 864 768 803 865 Q 742 962 609 962 Q 502 962 441 917 Q 381 872 349 776 Q 318 681 318 528 Q 318 315 386 214 Q 454 113 607 113 Q 741 113 802 211 Q 864 310 864 542 Z "/></g><g fill ="#000000" transform="translate(25.51025390625 0) scale(0.00439453125 -0.00439453125)"><path fill-rule="evenodd" d="M 554 141 L 554 8 Q 465 -16 372 -16 Q 156 -16 156 229 L 156 951 L 31 951 L 31 1082 L 163 1082 L 216 1324 L 336 1324 L 336 1082 L 536 1082 L 536 951 L 336 951 L 336 268 Q 336 190 361 158 Q 387 127 450 127 Q 486 127 554 141 Z "/></g></g><g fill ="#000000" transform="translate(77.5 28) "><g fill ="#000000" transform="translate(0 0) scale(0.00439453125 -0.00439453125)"><path fill-rule="evenodd" d="M 1053 546 Q 1053 -20 655 -20 Q 405 -20 319 168 L 314 168 Q 318 160 318 -2 L 318 -425 L 138 -425 L 138 861 Q 138 1028 132 1082 L 306 1082 Q 307 1078 309 1053 Q 311 1029 313 978 Q 316 927 316 908 L 320 908 Q 368 1008 447 1054 Q 526 1101 655 1101 Q 855 1101 954 967 Q 1053 833 1053 546 Z M 864 542 Q 864 768 803 865 Q 742 962 609 962 Q 502 962 441 917 Q 381 872 349 776 Q 318 681 318 528 Q 318 315 386 214 Q 454 113 607 113 Q 741 113 802 211 Q 864 310 864 542 Z "/></g><g fill ="#000000" transform="translate(5.00537109375 0) scale(0.00439453125 -0.00439453125)"><path fill-rule="evenodd" d="M 322 0 L 142 0 L 142 830 Q 142 944 136 1082 L 306 1082 Q 314 898 314 861 L 318 861 Q 361 1000 417 1051 Q 473 1102 575 1102 Q 611 1102 648 1092 L 648 927 Q 612 937 552 937 Q 440 937 381 840 Q 322 744 322 564 L 322 0 Z "/></g><g fill ="#000000" transform="translate(8.00244140625 0) scale(0.00439453125 -0.00439453125)"><path fill-rule="evenodd" d="M 1048 503 L 276 503 Q 276 317 353 216 Q 430 115 578 115 Q 695 115 765 162 Q 836 209 861 281 L 1019 236 Q 922 -20 578 -20 Q 338 -20 212 123 Q 87 266 87 548 Q 87 816 212 959 Q 338 1102 571 1102 Q 1048 1102 1048 527 L 1048 503 Z M 278 641 L 862 641 Q 847 812 775 890 Q 703 969 568 969 Q 437 969 360 881 Q 284 794 278 641 Z "/></g><g fill ="#000000" transform="translate(13.0078125 0) scale(0.00439453125 -0.00439453125)"><path fill-rule="evenodd" d="M 950 299 Q 950 146 834 63 Q 719 -20 511 -20 Q 309 -20 199 46 Q 90 113 57 254 L 216 285 Q 239 198 311 157 Q 383 117 511 117 Q 648 117 711 159 Q 775 201 775 285 Q 775 349 731 389 Q 687 429 589 455 L 460 489 Q 305 529 239 567 Q 174 606 137 661 Q 100 716 100 796 Q 100 944 205 1021 Q 311 1099 513 1099 Q 692 1099 797 1036 Q 903 973 931 834 L 769 814 Q 754 886 688 924 Q 623 963 513 963 Q 391 963 333 926 Q 275 889 275 814 Q 275 768 299 738 Q 323 708 370 687 Q 417 666 568 629 Q 711 593 774 562 Q 837 532 873 495 Q 910 458 930 409 Q 950 361 950 299 Z "/></g><g fill ="#000000" transform="translate(17.5078125 0) scale(0.00439453125 -0.00439453125)"><path fill-rule="evenodd" d="M 950 299 Q 950 146 834 63 Q 719 -20 511 -20 Q 309 -20 199 46 Q 90 113 57 254 L 216 285 Q 239 198 311 157 Q 383 117 511 117 Q 648 117 711 159 Q 775 201 775 285 Q 775 349 731 389 Q 687 429 589 455 L 460 489 Q 305 529 239 567 Q 174 606 137 661 Q 100 716 100 796 Q 100 944 205 1021 Q 311 1099 513 1099 Q 692 1099 797 1036 Q 903 973 931 834 L 769 814 Q 754 886 688 924 Q 623 963 513 963 Q 391 963 333 926 Q 275 889 275 814 Q 275 768 299 738 Q 323 708 370 687 Q 417 666 568 629 Q 711 593 774 562 Q 837 532 873 495 Q 910 458 930 409 Q 950 361 950 299 Z "/></g></g><g fill ="#000000" transform="translate(77.5 68.5) "><g fill ="#000000" transform="translate(0 0) scale(0.00439453125 -0.00439453125)"><path fill-rule="evenodd" d="M 1053 546 Q 1053 -20 655 -20 Q 405 -20 319 168 L 314 168 Q 318 160 318 -2 L 318 -425 L 138 -425 L 138 861 Q 138 1028 132 1082 L 306 1082 Q 307 1078 309 1053 Q 311 1029 313 978 Q 316 927 316 908 L 320 908 Q 368 1008 447 1054 Q 526 1101 655 1101 Q 855 1101 954 967 Q 1053 833 1053 546 Z M 864 542 Q 864 768 803 865 Q 742 962 609 962 Q 502 962 441 917 Q 381 872 349 776 Q 318 681 318 528 Q 318 315 386 214 Q 454 113 607 113 Q 741 113 802 211 Q 864 310 864 542 Z "/></g><g fill ="#000000" transform="translate(5.00537109375 0) scale(0.00439453125 -0.00439453125)"><path fill-rule="evenodd" d="M 322 0 L 142 0 L 142 830 Q 142 944 136 1082 L 306 1082 Q 314 898 314 861 L 318 861 Q 361 1000 417 1051 Q 473 1102 575 1102 Q 611 1102 648 1092 L 648 927 Q 612 937 552 937 Q 440 937 381 840 Q 322 744 322 564 L 322 0 Z "/></g><g fill ="#000000" transform="translate(8.00244140625 0) scale(0.00439453125 -0.00439453125)"><path fill-rule="evenodd" d="M 317 1312 L 137 1312 L 137 1484 L 317 1484 L 317 1312 Z M 317 0 L 137 0 L 137 1082 L 317 1082 L 317 0 Z "/></g><g fill ="#000000" transform="translate(10.001953125 0) scale(0.00439453125 -0.00439453125)"><path fill-rule="evenodd" d="M 1006 0 L 825 0 L 825 686 Q 825 793 804 852 Q 783 911 737 937 Q 691 963 602 963 Q 472 963 397 874 Q 322 785 322 627 L 322 0 L 142 0 L 142 851 Q 142 1040 136 1082 L 306 1082 Q 307 1077 308 1055 Q 309 1033 310 1004 Q 312 976 314 897 L 317 897 Q 379 1009 460 1055 Q 542 1102 663 1102 Q 841 1102 923 1013 Q 1006 925 1006 721 L 1006 0 Z "/></g><g fill ="#000000" transform="translate(15.00732421875 0) scale(0.00439453125 -0.00439453125)"><path fill-rule="evenodd" d="M 554 141 L 554 8 Q 465 -16 372 -16 Q 156 -16 156 229 L 156 951 L 31 951 L 31 1082 L 163 1082 L 216 1324 L 336 1324 L 336 1082 L 536 1082 L 536 951 L 336 951 L 336 268 Q 336 190 361 158 Q 387 127 450 127 Q 486 127 554 141 Z "/></g><g fill ="#000000" transform="translate(17.5078125 0) scale(0.00439453125 -0.00439453125)"><path fill-rule="evenodd" d=""/></g><g fill ="#000000" transform="translate(20.00830078125 0) scale(0.00439453125 -0.00439453125)"><path fill-rule="evenodd" d="M 414 -20 Q 251 -20 169 66 Q 87 152 87 302 Q 87 470 197 560 Q 308 650 554 656 L 797 660 L 797 719 Q 797 851 741 908 Q 685 965 565 965 Q 444 965 389 924 Q 334 883 323 793 L 135 810 Q 181 1102 569 1102 Q 773 1102 876 1008 Q 979 915 979 738 L 979 272 Q 979 192 1000 151 Q 1021 111 1080 111 Q 1106 111 1139 118 L 1139 6 Q 1071 -10 1000 -10 Q 900 -10 854 42 Q 809 95 803 207 L 797 207 Q 728 83 636 31 Q 545 -20 414 -20 Z M 455 115 Q 554 115 631 160 Q 708 205 752 283 Q 797 362 797 445 L 797 534 L 600 530 Q 473 528 407 504 Q 342 480 307 430 Q 272 380 272 299 Q 272 211 319 163 Q 367 115 455 115 Z "/></g><g fill ="#000000" transform="translate(25.013671875 0) scale(0.00439453125 -0.00439453125)"><path fill-rule="evenodd" d="M 554 141 L 554 8 Q 465 -16 372 -16 Q 156 -16 156 229 L 156 951 L 31 951 L 31 1082 L 163 1082 L 216 1324 L 336 1324 L 336 1082 L 536 1082 L 536 951 L 336 951 L 336 268 Q 336 190 361 158 Q 387 127 450 127 Q 486 127 554 141 Z "/></g></g><g fill ="#000000" transform="translate(77.5 41.5) "><g fill ="#000000" transform="translate(0 0) scale(0.00439453125 -0.00439453125)"><path fill-rule="evenodd" d="M 1053 546 Q 1053 -20 655 -20 Q 405 -20 319 168 L 314 168 Q 318 160 318 -2 L 318 -425 L 138 -425 L 138 861 Q 138 1028 132 1082 L 306 1082 Q 307 1078 309 1053 Q 311 1029 313 978 Q 316 927 316 908 L 320 908 Q 368 1008 447 1054 Q 526 1101 655 1101 Q 855 1101 954 967 Q 1053 833 1053 546 Z M 864 542 Q 864 768 803 865 Q 742 962 609 962 Q 502 962 441 917 Q 381 872 349 776 Q 318 681 318 528 Q 318 315 386 214 Q 454 113 607 113 Q 741 113 802 211 Q 864 310 864 542 Z "/></g><g fill ="#000000" transform="translate(5.00537109375 0) scale(0.00439453125 -0.00439453125)"><path fill-rule="evenodd" d="M 322 0 L 142 0 L 142 830 Q 142 944 136 1082 L 306 1082 Q 314 898 314 861 L 318 861 Q 361 1000 417 1051 Q 473 1102 575 1102 Q 611 1102 648 1092 L 648 927 Q 612 937 552 937 Q 440 937 381 840 Q 322 744 322 564 L 322 0 Z "/></g><g fill ="#000000" transform="translate(8.00244140625 0) scale(0.00439453125 -0.00439453125)"><path fill-rule="evenodd" d="M 317 1312 L 137 1312 L 137 1484 L 317 1484 L 317 1312 Z M 317 0 L 137 0 L 137 1082 L 317 1082 L 317 0 Z "/></g><g fill ="#000000" transform="translate(10.001953125 0) scale(0.00439453125 -0.00439453125)"><path fill-rule="evenodd" d="M 1053 542 Q 1053 258 928 119 Q 803 -20 565 -20 Q 328 -20 207 124 Q 86 269 86 542 Q 86 1102 571 1102 Q 819 1102 936 965 Q 1053 829 1053 542 Z M 864 542 Q 864 766 797 867 Q 731 969 574 969 Q 416 969 345 865 Q 275 762 275 542 Q 275 328 344 220 Q 414 113 563 113 Q 725 113 794 217 Q 864 321 864 542 Z "/></g><g fill ="#000000" transform="translate(15.00732421875 0) scale(0.00439453125 -0.00439453125)"><path fill-rule="evenodd" d="M 322 0 L 142 0 L 142 830 Q 142 944 136 1082 L 306 1082 Q 314 898 314 861 L 318 861 Q 361 1000 417 1051 Q 473 1102 575 1102 Q 611 1102 648 1092 L 648 927 Q 612 937 552 937 Q 440 937 381 840 Q 322 744 322 564 L 322 0 Z "/></g><g fill ="#000000" transform="translate(18.00439453125 0) scale(0.00439453125 -0.00439453125)"><path fill-rule="evenodd" d="M 317 1312 L 137 1312 L 137 1484 L 317 1484 L 317 1312 Z M 317 0 L 137 0 L 137 1082 L 317 1082 L 317 0 Z "/></g><g fill ="#000000" transform="translate(20.00390625 0) scale(0.00439453125 -0.00439453125)"><path fill-rule="evenodd" d="M 554 141 L 554 8 Q 465 -16 372 -16 Q 156 -16 156 229 L 156 951 L 31 951 L 31 1082 L 163 1082 L 216 1324 L 336 1324 L 336 1082 L 536 1082 L 536 951 L 336 951 L 336 268 Q 336 190 361 158 Q 387 127 450 127 Q 486 127 554 141 Z "/></g><g fill ="#000000" transform="translate(22.50439453125 0) scale(0.00439453125 -0.00439453125)"><path fill-rule="evenodd" d="M 191 -425 Q 117 -425 67 -414 L 67 -279 Q 105 -285 151 -285 Q 319 -285 417 -38 L 434 5 L 5 1082 L 197 1082 L 425 484 Q 430 470 437 450 Q 444 431 482 320 Q 520 209 523 196 L 593 393 L 830 1082 L 1020 1082 L 604 0 Q 537 -173 479 -257 Q 421 -342 350 -383 Q 280 -425 191 -425 Z "/></g></g></g>
<path d="M 113.5 1 L 118 5.5 L 118 77.5 L 113.5 82 " stroke="#000000" stroke-width="2" fill="none"/>
<g fill ="#000000" transform="translate(122.5 44.686578669690476) "><g fill ="#000000" transform="translate(0 0) scale(0.006018090027744067 -0.006018090027744067)"><path fill-rule="evenodd" d="M 1272 389 Q 1272 194 1119 87 Q 967 -20 690 -20 Q 175 -20 93 338 L 278 375 Q 310 248 414 188 Q 518 129 697 129 Q 882 129 982 192 Q 1083 256 1083 379 Q 1083 448 1051 491 Q 1020 534 963 562 Q 906 590 827 609 Q 748 628 652 650 Q 485 687 398 724 Q 312 761 262 806 Q 212 852 185 913 Q 159 974 159 1053 Q 159 1234 297 1332 Q 436 1430 694 1430 Q 934 1430 1061 1356 Q 1188 1283 1239 1106 L 1051 1073 Q 1020 1185 933 1235 Q 846 1286 692 1286 Q 523 1286 434 1230 Q 345 1174 345 1063 Q 345 998 379 955 Q 414 913 479 883 Q 544 854 738 811 Q 803 796 867 780 Q 932 765 991 743 Q 1050 722 1101 693 Q 1153 664 1191 622 Q 1229 580 1250 523 Q 1272 466 1272 389 Z "/></g><g fill ="#000000" transform="translate(8.220710977898396 0) scale(0.006018090027744067 -0.006018090027744067)"><path fill-rule="evenodd" d="M 133 1082 L 314 1082 L 314 396 Q 314 289 335 230 Q 356 171 402 145 Q 448 119 537 119 Q 667 119 742 208 Q 817 297 817 455 L 817 1082 L 997 1082 L 997 231 Q 997 42 1003 0 L 833 0 Q 832 5 831 27 Q 830 49 828 77 Q 827 106 825 185 L 822 185 Q 760 73 678 26 Q 597 -20 476 -20 Q 298 -20 215 68 Q 133 157 133 361 L 133 1082 Z "/></g><g fill ="#000000" transform="translate(15.075315519498888 0) scale(0.006018090027744067 -0.006018090027744067)"><path fill-rule="evenodd" d="M 548 -425 Q 371 -425 266 -355 Q 161 -286 131 -158 L 312 -132 Q 330 -207 391 -247 Q 453 -288 553 -288 Q 822 -288 822 27 L 822 201 L 820 201 Q 769 97 680 44 Q 591 -8 472 -8 Q 273 -8 179 124 Q 86 256 86 539 Q 86 826 186 962 Q 287 1099 492 1099 Q 607 1099 691 1046 Q 776 994 822 897 L 824 897 Q 824 927 828 1001 Q 832 1075 836 1082 L 1007 1082 Q 1001 1028 1001 858 L 1001 31 Q 1001 -425 548 -425 Z M 822 541 Q 822 673 786 768 Q 750 864 684 914 Q 619 965 536 965 Q 398 965 335 865 Q 272 765 272 541 Q 272 319 331 222 Q 390 125 533 125 Q 618 125 684 175 Q 750 225 786 318 Q 822 412 822 541 Z "/></g><g fill ="#000000" transform="translate(21.92992006109938 0) scale(0.006018090027744067 -0.006018090027744067)"><path fill-rule="evenodd" d="M 548 -425 Q 371 -425 266 -355 Q 161 -286 131 -158 L 312 -132 Q 330 -207 391 -247 Q 453 -288 553 -288 Q 822 -288 822 27 L 822 201 L 820 201 Q 769 97 680 44 Q 591 -8 472 -8 Q 273 -8 179 124 Q 86 256 86 539 Q 86 826 186 962 Q 287 1099 492 1099 Q 607 1099 691 1046 Q 776 994 822 897 L 824 897 Q 824 927 828 1001 Q 832 1075 836 1082 L 1007 1082 Q 1001 1028 1001 858 L 1001 31 Q 1001 -425 548 -425 Z M 822 541 Q 822 673 786 768 Q 750 864 684 914 Q 619 965 536 965 Q 398 965 335 865 Q 272 765 272 541 Q 272 319 331 222 Q 390 125 533 125 Q 618 125 684 175 Q 750 225 786 318 Q 822 412 822 541 Z "/></g><g fill ="#000000" transform="translate(28.78452460269987 0) scale(0.006018090027744067 -0.006018090027744067)"><path fill-rule="evenodd" d="M 1048 503 L 276 503 Q 276 317 353 216 Q 430 115 578 115 Q 695 115 765 162 Q 836 209 861 281 L 1019 236 Q 922 -20 578 -20 Q 338 -20 212 123 Q 87 266 87 548 Q 87 816 212 959 Q 338 1102 571 1102 Q 1048 1102 1048 527 L 1048 503 Z M 278 641 L 862 641 Q 847 812 775 890 Q 703 969 568 969 Q 437 969 360 881 Q 284 794 278 641 Z "/></g><g fill ="#000000" transform="translate(35.63912914430036 0) scale(0.006018090027744067 -0.006018090027744067)"><path fill-rule="evenodd" d="M 950 299 Q 950 146 834 63 Q 719 -20 511 -20 Q 309 -20 199 46 Q 90 113 57 254 L 216 285 Q 239 198 311 157 Q 383 117 511 117 Q 648 117 711 159 Q 775 201 775 285 Q 775 349 731 389 Q 687 429 589 455 L 460 489 Q 305 529 239 567 Q 174 606 137 661 Q 100 716 100 796 Q 100 944 205 1021 Q 311 1099 513 1099 Q 692 1099 797 1036 Q 903 973 931 834 L 769 814 Q 754 886 688 924 Q 623 963 513 963 Q 391 963 333 926 Q 275 889 275 814 Q 275 768 299 738 Q 323 708 370 687 Q 417 666 568 629 Q 711 593 774 562 Q 837 532 873 495 Q 910 458 930 409 Q 950 361 950 299 Z "/></g><g fill ="#000000" transform="translate(41.80165333271029 0) scale(0.006018090027744067 -0.006018090027744067)"><path fill-rule="evenodd" d="M 554 141 L 554 8 Q 465 -16 372 -16 Q 156 -16 156 229 L 156 951 L 31 951 L 31 1082 L 163 1082 L 216 1324 L 336 1324 L 336 1082 L 536 1082 L 536 951 L 336 951 L 336 268 Q 336 190 361 158 Q 387 127 450 127 Q 486 127 554 141 Z "/></g><g fill ="#000000" transform="translate(45.22594655849666 0) scale(0.006018090027744067 -0.006018090027744067)"><path fill-rule="evenodd" d="M 317 1312 L 137 1312 L 137 1484 L 317 1484 L 317 1312 Z M 317 0 L 137 0 L 137 1082 L 317 1082 L 317 0 Z "/></g><g fill ="#000000" transform="translate(47.96417752112021 0) scale(0.006018090027744067 -0.006018090027744067)"><path fill-rule="evenodd" d="M 1053 542 Q 1053 258 928 119 Q 803 -20 565 -20 Q 328 -20 207 124 Q 86 269 86 542 Q 86 1102 571 1102 Q 819 1102 936 965 Q 1053 829 1053 542 Z M 864 542 Q 864 766 797 867 Q 731 969 574 969 Q 416 969 345 865 Q 275 762 275 542 Q 275 328 344 220 Q 414 113 563 113 Q 725 113 794 217 Q 864 321 864 542 Z "/></g><g fill ="#000000" transform="translate(54.81878206272071 0) scale(0.006018090027744067 -0.006018090027744067)"><path fill-rule="evenodd" d="M 1006 0 L 825 0 L 825 686 Q 825 793 804 852 Q 783 911 737 937 Q 691 963 602 963 Q 472 963 397 874 Q 322 785 322 627 L 322 0 L 142 0 L 142 851 Q 142 1040 136 1082 L 306 1082 Q 307 1077 308 1055 Q 309 1033 310 1004 Q 312 976 314 897 L 317 897 Q 379 1009 460 1055 Q 542 1102 663 1102 Q 841 1102 923 1013 Q 1006 925 1006 721 L 1006 0 Z "/></g><g fill ="#000000" transform="translate(61.673386604321195 0) scale(0.006018090027744067 -0.006018090027744067)"><path fill-rule="evenodd" d="M 950 299 Q 950 146 834 63 Q 719 -20 511 -20 Q 309 -20 199 46 Q 90 113 57 254 L 216 285 Q 239 198 311 157 Q 383 117 511 117 Q 648 117 711 159 Q 775 201 775 285 Q 775 349 731 389 Q 687 429 589 455 L 460 489 Q 305 529 239 567 Q 174 606 137 661 Q 100 716 100 796 Q 100 944 205 1021 Q 311 1099 513 1099 Q 692 1099 797 1036 Q 903 973 931 834 L 769 814 Q 754 886 688 924 Q 623 963 513 963 Q 391 963 333 926 Q 275 889 275 814 Q 275 768 299 738 Q 323 708 370 687 Q 417 666 568 629 Q 711 593 774 562 Q 837 532 873 495 Q 910 458 930 409 Q 950 361 950 299 Z "/></g></g><g fill ="#000000" transform="translate(122.5 100) "><g fill ="#000000" transform="translate(0 0) scale(0.006018090027744067 -0.006018090027744067)"><path fill-rule="evenodd" d="M 1204 1253 L 720 1253 L 720 0 L 530 0 L 530 1253 L 46 1253 L 46 1409 L 1204 1409 L 1204 1253 Z "/></g><g fill ="#000000" transform="translate(7.528630624707827 0) scale(0.006018090027744067 -0.006018090027744067)"><path fill-rule="evenodd" d="M 1048 503 L 276 503 Q 276 317 353 216 Q 430 115 578 115 Q 695 115 765 162 Q 836 209 861 281 L 1019 236 Q 922 -20 578 -20 Q 338 -20 212 123 Q 87 266 87 548 Q 87 816 212 959 Q 338 1102 571 1102 Q 1048 1102 1048 527 L 1048 503 Z M 278 641 L 862 641 Q 847 812 775 890 Q 703 969 568 969 Q 437 969 360 881 Q 284 794 278 641 Z "/></g><g fill ="#000000" transform="translate(14.383235166308319 0) scale(0.006018090027744067 -0.006018090027744067)"><path fill-rule="evenodd" d="M 1002 0 L 801 0 L 510 444 L 217 0 L 23 0 L 408 556 L 41 1082 L 240 1082 L 510 661 L 778 1082 L 979 1082 L 612 558 L 1002 0 Z "/></g><g fill ="#000000" transform="translate(20.545759354718243 0) scale(0.006018090027744067 -0.006018090027744067)"><path fill-rule="evenodd" d="M 554 141 L 554 8 Q 465 -16 372 -16 Q 156 -16 156 229 L 156 951 L 31 951 L 31 1082 L 163 1082 L 216 1324 L 336 1324 L 336 1082 L 536 1082 L 536 951 L 336 951 L 336 268 Q 336 190 361 158 Q 387 127 450 127 Q 486 127 554 141 Z "/></g><g fill ="#000000" transform="translate(23.970052580504618 0) scale(0.006018090027744067 -0.006018090027744067)"><path fill-rule="evenodd" d=""/></g><g fill ="#000000" transform="translate(27.394345806290993 0) scale(0.006018090027744067 -0.006018090027744067)"><path fill-rule="evenodd" d="M 1048 503 L 276 503 Q 276 317 353 216 Q 430 115 578 115 Q 695 115 765 162 Q 836 209 861 281 L 1019 236 Q 922 -20 578 -20 Q 338 -20 212 123 Q 87 266 87 548 Q 87 816 212 959 Q 338 1102 571 1102 Q 1048 1102 1048 527 L 1048 503 Z M 278 641 L 862 641 Q 847 812 775 890 Q 703 969 568 969 Q 437 969 360 881 Q 284 794 278 641 Z "/></g><g fill ="#000000" transform="translate(34.24895034789149 0) scale(0.006018090027744067 -0.006018090027744067)"><path fill-rule="evenodd" d="M 1006 0 L 825 0 L 825 686 Q 825 793 804 852 Q 783 911 737 937 Q 691 963 602 963 Q 472 963 397 874 Q 322 785 322 627 L 322 0 L 142 0 L 142 851 Q 142 1040 136 1082 L 306 1082 Q 307 1077 308 1055 Q 309 1033 310 1004 Q 312 976 314 897 L 317 897 Q 379 1009 460 1055 Q 542 1102 663 1102 Q 841 1102 923 1013 Q 1006 925 1006 721 L 1006 0 Z "/></g><g fill ="#000000" transform="translate(41.103554889491974 0) scale(0.006018090027744067 -0.006018090027744067)"><path fill-rule="evenodd" d="M 554 141 L 554 8 Q 465 -16 372 -16 Q 156 -16 156 229 L 156 951 L 31 951 L 31 1082 L 163 1082 L 216 1324 L 336 1324 L 336 1082 L 536 1082 L 536 951 L 336 951 L 336 268 Q 336 190 361 158 Q 387 127 450 127 Q 486 127 554 141 Z "/></g><g fill ="#000000" transform="translate(44.52784811527835 0) scale(0.006018090027744067 -0.006018090027744067)"><path fill-rule="evenodd" d="M 322 0 L 142 0 L 142 830 Q 142 944 136 1082 L 306 1082 Q 314 898 314 861 L 318 861 Q 361 1000 417 1051 Q 473 1102 575 1102 Q 611 1102 648 1092 L 648 927 Q 612 937 552 937 Q 440 937 381 840 Q 322 744 322 564 L 322 0 Z "/></g><g fill ="#000000" transform="translate(48.632185514199804 0) scale(0.006018090027744067 -0.006018090027744067)"><path fill-rule="evenodd" d="M 191 -425 Q 117 -425 67 -414 L 67 -279 Q 105 -285 151 -285 Q 319 -285 417 -38 L 434 5 L 5 1082 L 197 1082 L 425 484 Q 430 470 437 450 Q 444 431 482 320 Q 520 209 523 196 L 593 393 L 830 1082 L 1020 1082 L 604 0 Q 537 -173 479 -257 Q 421 -342 350 -383 Q 280 -425 191 -425 Z "/></g></g><path d="M 113.5 86.5 L 118 91 L 118 100 L 113.5 104.5 " stroke="#000000" stroke-width="2" fill="none"/>
</svg>